<?xml version="1.0" encoding="utf-8"?>
<!-- Generator: Adobe Illustrator 24.0.3, SVG Export Plug-In . SVG Version: 6.00 Build 0)  -->
<svg version="1.0" id="Шар_1" xmlns="http://www.w3.org/2000/svg" xmlns:xlink="http://www.w3.org/1999/xlink" x="0px" y="0px"
	 viewBox="0 0 120 120" style="enable-background:new 0 0 120 120;" xml:space="preserve">
<style type="text/css">
	.st0{fill:#90A9B1;}
	.st1{fill:#7EBFCC;}
	.st2{fill:#00768C;}
	.st3{fill:#FED046;}
</style>
<g>
	<path class="st0" d="M95,94.21c-0.18-1.55-0.56-2.45-0.3-3.09c5.08-13.31,2.25-17.5-11.88-17.5c-18.34,0-36.68-0.06-55.01,0.03
		c-8.41,0.05-12.26,4.61-10.63,12.86c0.91,4.58-1.02,4.06-3.98,3.12c-8.11-2.58-10.89-9.62-12.5-16.58
		c-3.2-13.84,4.99-28.11,18.53-32.54c4.77-1.55,7.02-3.47,8.55-8.4c4.65-14.96,17.92-22.08,32-20.56
		c14.04,1.52,24.19,12.94,25.17,27.66c0.22,3.26,0.53,5.28,4.64,5.78c13.35,1.62,22.59,10.4,23.95,22.05
		C114.86,78.46,107.7,89.15,95,94.21z"/>
	<path class="st1" d="M92.49,0.24c5.2-1.1,5.88,1.68,5.08,5.86c-3.1,16-0.51,20.83,14.74,25.42c5.4,1.63,5.44,2.94,2.22,7.25
		c-3.76,5.04-6.43,7.09-13.42,4.26C93.64,40,89.31,36.61,87.93,28.43c-0.91-5.39-4.92-9.86-9.35-13.3c-4.57-3.55-3.71-6.7,0.45-9.31
		C83.14,3.23,86.86-0.65,92.49,0.24z"/>
	<path class="st2" d="M47.16,119.97c-9.85,0-19.7-0.03-29.55,0.02c-3.12,0.02-6.22-0.14-6.03-4.29c0.16-3.55,2.94-3.74,5.79-3.73
		c19.97,0.05,39.93,0.03,59.9,0c3.12,0,6.22,0.14,6.03,4.29c-0.16,3.55-2.94,3.76-5.79,3.74C67.4,119.94,57.28,119.97,47.16,119.97z
		"/>
	<path class="st2" d="M37.87,96.11c9.56,0,19.12,0,28.67,0c2.4,0,5.24-0.21,5.48,3.06c0.27,3.65-2.67,4.19-5.44,4.21
		c-19.38,0.06-38.76,0.06-58.14,0c-2.75,0-5.72-0.59-5.52-4.18c0.19-3.22,3.02-3.1,5.47-3.1C18.22,96.13,28.03,96.13,37.87,96.11z"
		/>
	<path class="st2" d="M57.82,79.87c9.03,0,18.07-0.03,27.1,0c2.61,0.02,6.24-0.43,6.33,3.02c0.13,4.18-3.85,3.5-6.62,3.5
		c-18.6,0.08-37.19,0.06-55.79,0.05c-2.59,0-6.08,0.35-5.93-3.41c0.16-3.6,3.6-3.15,6.2-3.17C38.68,79.86,48.26,79.87,57.82,79.87z"
		/>
	<path class="st2" d="M84.43,95.98c2.81,0.58,7.36-1.42,7.26,3.57c-0.1,5.07-4.69,3.9-7.87,3.97c-3.02,0.06-7.1,0.62-6.78-4.18
		C77.38,94.38,81.76,96.69,84.43,95.98z"/>
	<path class="st3" d="M114.72,26.13c-4.96,3.26-4.64-2.62-4.83-4.53c-0.3-2.86,3.34-4.8,5.6-4.88c1.97-0.06,4.96,2.16,4.46,5.31
		C119.58,24.29,119.69,27.86,114.72,26.13z"/>
</g>
</svg>
