<?xml version="1.0" encoding="utf-8"?>
<!-- Generator: Adobe Illustrator 24.0.3, SVG Export Plug-In . SVG Version: 6.00 Build 0)  -->
<svg version="1.0" id="Шар_1" xmlns="http://www.w3.org/2000/svg" xmlns:xlink="http://www.w3.org/1999/xlink" x="0px" y="0px"
	 viewBox="0 0 120 120" style="enable-background:new 0 0 120 120;" xml:space="preserve">
<style type="text/css">
	.st0{fill:#A3C7D3;}
	.st1{fill:#F8D046;}
	.st2{fill:#007A90;}
</style>
<g>
	<path class="st0" d="M55.45,75.19c-8.84,0-17.69-0.12-26.53,0.04c-8.03,0.15-10.77,3.83-9.33,12.39c0.46,2.76-0.04,3.68-2.85,4.01
		c-9.88,1.18-15.95-4.97-16.68-17.4c-0.8-13.67,7.64-26.96,19.96-29.8c4.05-0.93,5.31-2.7,5.86-6.41
		c2.16-14.36,17.35-24.64,28.92-23c13.67,1.94,25.21,12.4,25.63,28.56c0.1,3.89,0.69,5.11,4.79,5.7
		c19.28,2.77,27.65,22.95,18.26,40.02c-2.03,3.69-4.5,6.38-7.96,7.96c-1.22,0.55-2.87,4.08-4.3,0.39c-0.81-2.09-3.83-2.58-2.23-6.65
		c4.54-11.54,1.5-15.8-10.04-15.8C71.11,75.18,63.28,75.19,55.45,75.19z"/>
	<path class="st1" d="M73.2,3.67c3.98,0.28,4.11,4.47,6.11,6.69c0.98,1.08,1.16,3.28,3.24,2.61c1.84-0.6,1.75-2.39,1.8-4.01
		c0.06-1.9-0.09-3.83,0.13-5.71c0.25-2.18,1.54-3.23,3.66-3.25c2.42-0.02,2.97,1.51,2.97,3.66c0,1.36,0.04,2.72,0.02,4.08
		c-0.04,2.23-0.08,4.53,2.51,5.18c2.47,0.62,2.63-2.03,3.63-3.37c0.94-1.25,1.48-2.83,2.42-4.08c1.19-1.58,2.73-2.57,4.59-1.15
		c1.59,1.22,2.35,2.75,1.26,4.88c-0.97,1.89-1.81,3.86-2.67,5.82c-0.57,1.3-0.66,2.64,0.33,3.77c1.41,1.63,2.62,0.69,3.9-0.35
		c1-0.81,2.18-1.34,3.23-2.08c2.21-1.56,4.34-1.77,5.88,0.85c1.48,2.51-0.45,4.01-1.91,5.44c-0.73,0.71-1.74,1.08-2.62,1.62
		c-1.75,1.1-3.69,2.03-2.87,4.92c0.76,2.68,2.81,1.69,4.42,1.87c1.25,0.14,2.52,0.03,3.79,0.03c1.77-0.01,2.81,0.79,2.96,2.83
		c0.15,2.17-0.45,3.85-2.57,4.26c-1.47,0.28-3.02,0.25-4.52,0.19c-1.81-0.08-3.75-0.35-4.24,2.18c-0.44,2.26,1.08,3.1,2.67,4.25
		c2.19,1.59,7.04,2.13,4.81,6.58c-2.19,4.36-5.37,0.4-8.28,0.12c-6.7-0.65-12.18-4.67-18.48-5.9c-3.08-0.6-3.85-1.88-4.41-5.12
		c-1.26-7.25-4.44-13.59-8.93-19.42c-2.73-3.55-4.18-8.35-5.76-12.77C69.39,5.84,71.06,4.3,73.2,3.67z"/>
	<path class="st2" d="M55.47,88.05c-8.57,0-17.13-0.02-25.7,0.01c-2.86,0.01-6.23,0.17-6.19-3.91c0.03-3.38,3.03-3.63,5.74-3.63
		c17.13,0.05,34.26,0.01,51.39,0.01c2.52,0,5.57-0.31,5.69,3.52c0.15,4.54-3.3,3.92-6,3.93c-8.31,0.05-16.63,0.02-24.94,0.02
		C55.47,88.03,55.47,88.04,55.47,88.05z"/>
	<path class="st2" d="M37.04,104.11c-8.57,0-17.13-0.01-25.69,0.01c-2.66,0.01-5.55-0.19-5.48-3.85c0.07-3.71,3.11-3.62,5.68-3.62
		c17.13-0.01,34.26-0.01,51.39-0.01c2.59,0,5.48-0.07,5.41,3.82c-0.08,3.93-3.14,3.61-5.61,3.63
		C54.16,104.15,45.6,104.11,37.04,104.11z"/>
	<path class="st2" d="M45.9,112.79c8.58,0,17.16-0.06,25.74,0.03c2.32,0.03,5.5-0.99,5.73,3.23c0.22,4.09-2.68,3.93-5.23,3.93
		c-17.41,0.02-34.83,0.02-52.24-0.01c-2.53,0-5.63,0.14-5.47-3.74c0.15-3.71,3.16-3.46,5.72-3.46
		C28.74,112.81,37.32,112.79,45.9,112.79z"/>
	<path class="st2" d="M79.96,104.2c-2.84-0.24-6.87,0.98-6.98-3.76c-0.12-4.91,3.96-3.82,6.78-3.84c2.85-0.02,6.84-0.92,6.63,4
		C86.22,104.57,82.75,104.27,79.96,104.2z"/>
</g>
</svg>
