<?xml version="1.0" encoding="utf-8"?>
<!-- Generator: Adobe Illustrator 24.0.3, SVG Export Plug-In . SVG Version: 6.00 Build 0)  -->
<svg version="1.1" id="Шар_1" xmlns="http://www.w3.org/2000/svg" xmlns:xlink="http://www.w3.org/1999/xlink" x="0px" y="0px"
	 viewBox="0 0 120 120" style="enable-background:new 0 0 120 120;" xml:space="preserve">
<style type="text/css">
	.st0{fill:#F1EA8B;}
	.st1{fill:#EADF8C;}
</style>
<g>
	<g>
		<path class="st0" d="M29,108.4C3.6,92.4-5.1,59.8,9,33.6s46.9-37.7,72.9-25c12.7,12.2,14.2,27.8,12.3,43.8
			c-3.4,28.2-24.3,49.8-52.1,55.8C37.7,109.1,33.4,109,29,108.4z"/>
		<path class="st1" d="M29,108.4c8.3-2.4,17.1-2.4,25.2-6.2c37.5-17.8,49.6-58.4,27.7-93.6c23.1,8.5,36.2,31.3,34.1,59.3
			c-1.6,21.6-21.7,43.9-43.4,48.4C57,119.5,42.4,117.4,29,108.4z"/>
	</g>
</g>
</svg>
