<?xml version="1.0" encoding="utf-8"?>
<!-- Generator: Adobe Illustrator 24.0.3, SVG Export Plug-In . SVG Version: 6.00 Build 0)  -->
<svg version="1.1" id="Шар_1" xmlns="http://www.w3.org/2000/svg" xmlns:xlink="http://www.w3.org/1999/xlink" x="0px" y="0px"
	 viewBox="0 0 120 120" style="enable-background:new 0 0 120 120;" xml:space="preserve">
<style type="text/css">
	.st0{fill:#D8D8D8;}
	.st1{fill:#FBEA0F;}
</style>
<g>
	<g>
		<path class="st0" d="M65.2,38.4c12.6,0.5,22.2,6.3,28.5,17.5c1.3,2.4,2.8,3.5,5.5,3.9c11.2,1.9,20.5,14.1,19.4,24.8
			c-1.4,13.3-11.2,22.5-23.8,22.5c-20.8,0-41.6-0.9-62.2,0.3c-17,1-30.5-16.8-21.2-33.8c0.4-0.7,0.5-1.6,0.8-2.3
			c3-5.5,7.9-8.3,13.7-9c4.1-0.5,6.4-2.5,8.2-6.2c5-10.1,13.2-15.9,23.7-18.5C60.2,36.9,62.9,36.3,65.2,38.4z"/>
		<path class="st1" d="M65.2,38.4c-14.3,0.3-24.7,7-30.8,20.3c-1.5,3.4-3.2,5.1-7.1,4.8c-6.3-0.4-10.2,4.8-15.2,7.7
			C-1.8,55.7-2.3,36,10.9,22.4C28.8,4,58.5,12.7,65.2,38.4z"/>
	</g>
</g>
</svg>
