<?xml version="1.0" encoding="utf-8"?>
<!-- Generator: Adobe Illustrator 24.0.3, SVG Export Plug-In . SVG Version: 6.00 Build 0)  -->
<svg version="1.1" id="Шар_1" xmlns="http://www.w3.org/2000/svg" xmlns:xlink="http://www.w3.org/1999/xlink" x="0px" y="0px"
	 viewBox="0 0 120 120" style="enable-background:new 0 0 120 120;" xml:space="preserve">
<style type="text/css">
	.st0{fill:#B1B1B1;}
	.st1{fill:#F1EA8B;}
	.st2{fill:#EADF8C;}
	.st3{fill:#EADF8D;}
</style>
<g>
	<g>
		<path class="st0" d="M94.9,41.1c1.8,4.6,4.5,7.4,9.9,8.7c9.3,2.3,15.4,13,14.1,22.3C117.4,83,109,90.7,98.4,91c-3,0.1-6,0.1-9,0.1
			c-4.3,2.7-9,1.9-13.6,1.9c-6.1,0.1-12.3,0.1-18.4,0c-5.8-0.5-11.6-0.1-17.4-0.2c-10.4-0.4-18.9-7.8-20.3-17.6
			c-1.5-10.9,3.8-20.3,14.2-23.4c5.4-1.6,8.8-4.5,11.6-9.3c4.8-8.3,12.8-12,21.8-13.5c4.5,0.1,8.9-0.2,13.3,1
			C87,31.6,91.4,35.8,94.9,41.1z"/>
		<path class="st1" d="M67.6,30.5C58.3,32,50.3,36,45.9,44.9c-2.4,4.8-5.3,7.1-10.4,8.1c-7.7,1.4-12.4,6.7-14,14.4
			c-1.7,7.9,0.7,14.8,7,19.8c3.3,2.6,7,4.1,11.3,3.9c5.4-0.2,10.7,0,16.1,0.1c0.4,3.5-2.5,4.2-4.6,5.4c-8.1,4.7-16.9,7.1-26.2,7.4
			C4.6,91.2-3.9,67.7,3.5,44.8c7-21.6,28.6-35.8,51.6-33.6c5.7,0.5,11.3,1.9,16.3,5.1c0.4,0.8,1,1.4,1.5,2.1
			C78.4,27.8,77.9,29.1,67.6,30.5z"/>
		<path class="st2" d="M25.1,103.9c2.1-2.3,4.8-2.1,7.5-2.5c8.6-1.4,16.6-4.3,23.3-10.3c11.2,0,22.3,0,33.5,0
			C73.1,112,47.4,117.1,25.1,103.9z"/>
		<path class="st3" d="M67.6,30.5c0.7-0.4,1.5-1.1,2.2-1.1c6.5,0.4,5.8-2.6,3.5-6.9c-1-1.9-3.3-3.6-1.9-6.3
			c11.2,5,19.3,13.1,23.5,24.9C87.4,33.5,78.5,29.3,67.6,30.5z"/>
	</g>
</g>
</svg>
