<?xml version="1.0" encoding="utf-8"?>
<!-- Generator: Adobe Illustrator 24.0.3, SVG Export Plug-In . SVG Version: 6.00 Build 0)  -->
<svg version="1.1" id="Шар_1" xmlns="http://www.w3.org/2000/svg" xmlns:xlink="http://www.w3.org/1999/xlink" x="0px" y="0px"
	 viewBox="0 0 120 120" style="enable-background:new 0 0 120 120;" xml:space="preserve">
<style type="text/css">
	.st0{fill:#C0C0C0;}
	.st1{fill:#D8D8D8;}
	.st2{fill:#FBEA0F;}
</style>
<g>
	<g>
		<path class="st0" d="M93.3,48.7c1.1,0.5,1.7,1.4,2.3,2.4c2.7,4.5,5.7,7.8,11.6,9.1c6.7,1.4,9.5,7.9,12.2,13.7c0,2.3,0,4.7,0,7
			c-2.1,6.5-5.5,11.9-12.1,14.7c-2,0.8-4,1.3-6.2,1.3c-18.3,0-36.6,0-54.9,0c-10,0-17-6.8-17.7-17c1.9-1.8,4.3-1.4,6.6-1.4
			c11.9-0.1,23.9-0.1,35.8,0c8.2,0,14.1-3.6,17.4-10.9c3.2-7.2,1.6-13.7-4.6-19.9c-1.3-1.3-2.9-2.3-3.5-4.2c2.9-2,6.5-1.4,10.3,1.7
			C91.7,46.2,92.5,47.5,93.3,48.7z"/>
		<path class="st1" d="M80.5,42.6c1.9,1.8,3.8,3.6,5.6,5.5c5.5,5.9,6.7,12.7,3.6,20.1c-2.8,6.7-9.9,11.6-17,11.6
			c-14.7,0-29.5,0-44.2,0c-3.6,0-7.3,0.1-11,0c-9.2-0.2-16.8-7.6-17-16.7C0.3,53.5,7.1,45.6,16.5,45c2.4-0.2,4-0.6,5-3
			c5.4-12.1,15-17.5,28-17.1c8.3-1,14.4,3.1,19.3,9c2.9,3.5,5.1,7.4,10.4,7.3C80,41.2,80.4,41.9,80.5,42.6z"/>
		<path class="st2" d="M80.5,42.6c-6.6,0.5-9.6-3.9-13.1-8.5c-4.2-5.6-10.7-8.4-17.8-9.2c17-6.7,40.3,6.3,43.7,23.8
			C89.5,45.8,85.5,43.2,80.5,42.6z"/>
	</g>
</g>
</svg>
