<?xml version="1.0" encoding="utf-8"?>
<!-- Generator: Adobe Illustrator 24.0.3, SVG Export Plug-In . SVG Version: 6.00 Build 0)  -->
<svg version="1.1" id="Шар_1" xmlns="http://www.w3.org/2000/svg" xmlns:xlink="http://www.w3.org/1999/xlink" x="0px" y="0px"
	 viewBox="0 0 120 120" style="enable-background:new 0 0 120 120;" xml:space="preserve">
<style type="text/css">
	.st0{fill:#C0C0C0;}
	.st1{fill:#FEFEFE;}
	.st2{fill:#D8D8D8;}
	.st3{fill:#EADF8C;}
	.st4{fill:#F1EA8C;}
	.st5{fill:#F3ED9C;}
</style>
<g>
	<g>
		<path class="st0" d="M0,57c3.7-7.6,8.7-13.3,18-13c1.7,0,2.2-1.3,2.8-2.5c6.1-13.7,17-18.6,31.3-17.4c8.2,0.6,14,5,18.3,11.6
			c1.7,2.5,3.6,4.2,6.6,4.5c5.4,1.4,9.1,5,12.2,9.4c8.8,13.5-2.8,31.5-18.8,30.9c-13.6-0.5-27.2,0-40.8-0.2c-1.1,0-2.3,0-3.4,0
			c-2.7,0-5.3,0-8-0.1C8.4,80.1,2.3,75.4,0,66C0,63,0,60,0,57z"/>
		<path class="st1" d="M0,66C4.8,78.2,14.8,80,26.1,79c2,1,3.4,2.6,4,4.8c2.8,11.6,7.8,15.6,19.6,15.6c16.1,0,32.3-0.1,48.4,0.1
			c9.2,0.1,15.7-3.5,19.3-12.1c0.5-1.2,0.8-2.7,2.6-2.6c0,10.5-0.1,21,0.1,31.5c0.1,3-0.6,3.6-3.6,3.6c-38.8-0.1-77.6-0.1-116.4-0.1
			C0,101.9,0,84,0,66z"/>
		<path class="st2" d="M119.9,85c-2.1,6.5-5.5,11.9-12.2,14.7c-2.2,0.9-4.4,1.3-6.7,1.3c-17.8,0-35.6-0.5-53.4,0.2
			c-9.8,0.3-19.7-8.8-18.6-18.3c-0.6-1.3-1-2.5,0-3.8c13.9,0,27.9-0.6,41.8,0.1C84,79.8,96,64.2,88.7,51.4c-0.4-0.7-0.5-1.6-0.8-2.3
			c2.8-1,3.8,1.2,5,2.9c1,1,2.3,1.9,3,3.1c2.9,4.6,6.2,7.9,12.1,9.3c6.5,1.5,9.2,7.9,11.8,13.6C119.9,80.3,119.9,82.6,119.9,85z"/>
		<path class="st3" d="M92.9,52c-1.7-1-3.3-2-5-2.9c-3.5-2.9-6.5-6.5-11-8c-1.1-4.9-4.3-9.1-4.9-14.2C83.6,31.4,90.4,39.9,92.9,52z"
			/>
		<path class="st4" d="M72,26.9c2.4,4.5,5.9,8.6,4.9,14.2c-3.3,0.3-5.4-0.6-7.1-3.9c-3.7-7.1-10.5-10.5-17.8-13
			C59,22.9,65.7,23.7,72,26.9z"/>
		<path class="st5" d="M29,79c0,1.3,0,2.5,0,3.8c-1-1.3-1.9-2.5-2.9-3.8C27.1,79,28,79,29,79z"/>
	</g>
</g>
</svg>
