<?xml version="1.0" encoding="utf-8"?>
<!-- Generator: Adobe Illustrator 24.0.3, SVG Export Plug-In . SVG Version: 6.00 Build 0)  -->
<svg version="1.1" id="Шар_1" xmlns="http://www.w3.org/2000/svg" xmlns:xlink="http://www.w3.org/1999/xlink" x="0px" y="0px"
	 viewBox="0 0 120 120" style="enable-background:new 0 0 120 120;" xml:space="preserve">
<style type="text/css">
	.st0{fill:#B1B1B1;}
	.st1{fill:#D8D8D8;}
</style>
<g>
	<g>
		<path class="st0" d="M98.9,75.3c2.5,9.7,2,18.6-5.5,25.9c-3.8,3.7-8.2,5.9-13.6,5.9c-20.3-0.1-40.7,0.1-61.1-0.1
			c-9.3-0.1-17.5-7.8-18.6-17C-1.1,79,4.9,69.8,14.5,66.8c2.7-0.9,7,1,8-3.9c2.3-10.5,12.5-19.8,23.2-21c12.4-1.4,22.9,2,30.8,12.5
			c2.9,3.9,6.4,6.5,11,8.1C93.3,64.5,97.8,68.3,98.9,75.3z"/>
		<path class="st1" d="M98.9,75.3c-4.2-6.3-8.8-11.9-16.8-12.7c-2.4-0.2-3.3-2.6-4.6-4.5c-11.7-16.8-29.8-19.8-45.9-7.7
			c-4.3,3.2-5.8,8.5-9,12.4c-5.8-14.9,0.6-28.3,15.6-31.7c2.6-0.6,3.6-2.1,4.7-4.1c6.7-11.6,16.9-16.3,29.4-15.2
			c11.5,1.1,19.8,7.7,24.8,18.6c1.1,2.4,1.7,4.3,4.7,4.8c13.5,2,19,8.8,18.1,22.4C119.2,68.3,111,75.2,98.9,75.3z"/>
	</g>
</g>
</svg>
