<?xml version="1.0" encoding="utf-8"?>
<!-- Generator: Adobe Illustrator 24.0.3, SVG Export Plug-In . SVG Version: 6.00 Build 0)  -->
<svg version="1.1" id="Шар_1" xmlns="http://www.w3.org/2000/svg" xmlns:xlink="http://www.w3.org/1999/xlink" x="0px" y="0px"
	 viewBox="0 0 120 120" style="enable-background:new 0 0 120 120;" xml:space="preserve">
<style type="text/css">
	.st0{fill:#8FA8B0;}
	.st1{fill:#64C6D8;}
	.st2{fill:#A5B7BE;}
	.st3{fill:#6AC5D8;}
	.st4{fill:#4CC5D9;}
	.st5{fill:#5EC5D8;}
	.st6{fill:#69C5D8;}
	.st7{fill:#62C9D7;}
	.st8{fill:#4DC3D2;}
	.st9{fill:#63C5D8;}
	.st10{fill:#8DA7AF;}
	.st11{fill:#F3F6F7;}
	.st12{fill:#F5F8F9;}
	.st13{fill:#F5F7F8;}
	.st14{fill:#F8FAFA;}
	.st15{fill:#F9FAFA;}
</style>
<g>
	<path class="st0" d="M23.9,83C11.2,79.6,3.2,70.2,2.8,58.4C2.4,45.7,9.4,35.2,21.7,31.4c5.1-1.6,7.8-3.7,9.2-9.1
		C34.6,9.1,47.8,1.6,63.2,2.9c13.1,1.1,24.6,11.9,25.5,25.4c0.4,5.7,1.9,7.3,7.8,7.7c10.6,0.7,19.6,10.2,20.5,20.2
		c1.3,13.9-4.4,22.3-18,26.7c-3.9,1.4-8,0.3-12,0.7c-3.1-1.3-6.9,0.2-9.6-2.4c-1.5-2.6,0.8-4.9,0.8-7.3c0-1.8,0.2-4.1-2.4-4
		c-2.2,0.1-2.7,2.2-2.7,4c-0.1,2.1,2,3.6,1.8,5.8c-0.7,2-2.3,3.1-4.3,3.8c-2,0.1-4.1,0.2-6.1-0.2c-3.3-1.5-7.8,1.2-10.3-2.9
		c-2.4,2.3-4.9,3.3-7.8,0.7c-0.9-1.5-0.5-2.9,0.1-4.4c0.8-2.2,1.7-4.7-0.6-6.3c-2.7-1.9-4,1.6-6.1,2.1c-0.2,0.1-0.6,0.3-0.7,0.4
		c-1,8.3-6.7,10.3-14.2,9.9C24.6,82.9,24.2,83,23.9,83z"/>
	<path class="st1" d="M76.4,117.2c-3.8-0.2-5.5-2.2-5.3-5.5c0.2-3.4,2.1-7.6,5.3-7.6c4,0,5.6,4.4,5.7,8
		C82.2,115.4,79.6,117,76.4,117.2z"/>
	<path class="st2" d="M64.7,82.8c2.2,0,4.4,0,6.5,0c4.9-2.7,9.8-0.4,14.7,0c4.4,0,8.8,0.1,13.2,0.1c-25,2.5-50.1,2.3-75.2,0.1
		l0.2-0.4C37.6,79.9,51.1,81.6,64.7,82.8z"/>
	<path class="st3" d="M45.2,117.2c-3.6-0.2-5.7-2.1-5.2-5.5c0.4-2.8,0.4-7,4.8-6.8c3.6,0.2,5.4,3.1,5.5,6.6
		C50.4,114.8,49.1,117.1,45.2,117.2z"/>
	<path class="st4" d="M92.4,90.6c0.7,0.7,1.5,1.4,2.2,2.2c2,2.6,3.6,5.3,0.6,8.3c-1.9,1.9-4.1,2.5-6.5,1c-3.7-2.4-3.9-5.3-1.1-8.5
		C90.3,94.4,89.2,89.4,92.4,90.6z"/>
	<path class="st5" d="M25.4,94.8c0-1.2,0.2-2.2,1.5-2.8c0.9,0.4,4.6,0.5,5.5,0.1c3.4,8.4,2.3,10.4-5.4,10
		C27.2,99.5,23.7,97.7,25.4,94.8z"/>
	<path class="st6" d="M63.1,92.2c3.8,2,4.2,5.2,2.3,8.4c-1.6,2.5-4.3,3.7-7.4,1.4C55.5,96.7,58.5,94.1,63.1,92.2z"/>
	<path class="st7" d="M63.1,92.2c-1.8,3.2-5.8,5.4-5,9.8c-4.8-2.6-2.8-6.1-1-9.3C58.7,89.6,60.9,90.7,63.1,92.2z"/>
	<path class="st8" d="M92.4,90.6c-1.6,0.8-1.4,2.4-2.1,3.7c-1.5,2.6-2.5,2-2.9-0.6C88.7,92.1,88.4,88.2,92.4,90.6z"/>
	<path class="st9" d="M32.3,92.1c-1.9,2.4-3.7,1.9-5.5-0.1C28.7,89.2,30.6,87.5,32.3,92.1z"/>
	<path class="st9" d="M25.4,94.8c-0.1,2.6,5.4,4,1.6,7.3C24,100.1,22.8,97.8,25.4,94.8z"/>
	<path class="st10" d="M64.7,82.8c-13.5-0.1-27.1-0.1-40.6-0.2c1.8-1.7,4.4-2.6,6.6-2.3c5,0.7,6.4-0.6,4.7-5.3
		c-1-2.9,0.2-4.2,3.4-2.7c2.6,2.3,5.1,4.8,7.8,7.1c4.2,3.3,9.4-0.5,13.9,1.8C61.8,81.8,63.6,81.4,64.7,82.8z"/>
	<path class="st11" d="M59.9,51.9c3.7,1.1,5.2,4.1,5.8,7c0.6,3.2-1.6,5.6-5,5.8c-2.9,0.2-5.4-1.4-5.6-4.4
		C54.7,56.5,57.1,54.1,59.9,51.9z"/>
	<path class="st12" d="M46.7,79.4c-5,0-7.2-2.6-7.8-7.1c3.1-1,2.6-8.5,7.7-4.9C51,70.6,51.7,75.4,46.7,79.4z"/>
	<path class="st13" d="M74.7,79.6c-1.1-1-2.6-1.9-3.4-3.2c-2.2-3.7,0.8-6.3,2.5-9c0.9-1.5,2.6-2,3.9-0.4c2.1,2.4,4.2,4.9,3.1,8.3
		c-0.6,1.6-2.1,2.9-3.2,4.3C76.7,80.7,75.7,80.4,74.7,79.6z"/>
	<path class="st14" d="M34.7,58.9c-0.3,2.9-1.4,5.1-4.8,5.4c-3.5,0.3-6-1.1-6-4.7c0-3.3,1.9-6.9,5-7.2C32.5,52,33.4,56.2,34.7,58.9z
		"/>
	<path class="st15" d="M95.8,59.1c-0.2,3.2-1.7,5.1-4.9,5.1c-3.6,0.1-5.6-2-5.1-5.3c0.5-2.9,1.6-6.9,5.1-6.7
		C94.2,52.4,95,56.3,95.8,59.1z"/>
	<path class="st10" d="M74.7,79.6c1,0,1.9,0,2.9-0.1c1.8,3.2,6.3,0.3,8.3,3.3c-4.9,0-9.8,0-14.7,0C71.8,81.2,73.1,80.2,74.7,79.6z"
		/>
</g>
</svg>
