<?xml version="1.0" encoding="utf-8"?>
<!-- Generator: Adobe Illustrator 24.0.3, SVG Export Plug-In . SVG Version: 6.00 Build 0)  -->
<svg version="1.1" id="Шар_1" xmlns="http://www.w3.org/2000/svg" xmlns:xlink="http://www.w3.org/1999/xlink" x="0px" y="0px"
	 viewBox="0 0 120 120" style="enable-background:new 0 0 120 120;" xml:space="preserve">
<style type="text/css">
	.st0{fill:#788B8E;}
	.st1{fill:#5FC5D7;}
	.st2{fill:#60C5D8;}
	.st3{fill:#708485;}
</style>
<g>
	<path class="st0" d="M65.8,9.7c11.2,2.2,20,11.1,20.6,22.5c0.3,5.7,1.8,8.5,7.3,8.9l1.1,0.2c11.3,2.4,18.5,12.2,17.9,24.1
		C112,77.1,103.6,86,92,87c-8.1-1.6-16.4-0.7-24.5-0.6c-11.6,0.1-23.2-1-34.8,0.6C20.4,86,11.9,77.8,10,64.3
		c-1.5-11,4.1-23.8,16.2-27.4c5.7-1.7,7.6-4.8,9.2-10.1c4-12.9,16.8-20.1,29.3-17.2L65.8,9.7z"/>
	<path class="st1" d="M66.4,96.1c0.1,1.8-9.5,18.5-11,19.2c-1.4,0.6-2.7,0.6-3.9-0.3c-1.4-1.2-1.6-3.1-0.8-4.5
		c3.1-5.7,6.5-11.2,9.8-16.7c0.9-1.4,2.3-1.4,3.7-0.9C65.7,93.3,66.2,94.7,66.4,96.1z"/>
	<path class="st1" d="M90.6,97.3c0.1,1.8-9.5,18.5-11,19.2c-1.4,0.6-2.7,0.6-3.9-0.3c-1.4-1.2-1.6-3.1-0.8-4.5
		c3.1-5.7,6.5-11.2,9.8-16.7c0.9-1.4,2.3-1.4,3.7-0.9C89.8,94.5,90.3,95.8,90.6,97.3z"/>
	<path class="st2" d="M43.4,96.6c-2.4,6.6-5.3,12.9-10.2,18c-1.1,1.1-2.3,1.6-3.7,0.9c-1.4-0.8-1.5-2.4-1.2-3.7
		c1.6-6.4,6.5-11.1,9.2-17c0.7-1.5,3.3-1,5.1-0.4C43.6,94.7,43.8,95.6,43.4,96.6z"/>
	<path class="st3" d="M32.6,87c1.1-1.5,2.8-1.4,4.4-1.4c16.9,0,33.8,0,50.6,0c1.6,0,3.2-0.1,4.3,1.4C72.2,87,52.4,87,32.6,87z"/>
</g>
</svg>
