<?xml version="1.0" encoding="utf-8"?>
<!-- Generator: Adobe Illustrator 24.0.3, SVG Export Plug-In . SVG Version: 6.00 Build 0)  -->
<svg version="1.1" id="Шар_1" xmlns="http://www.w3.org/2000/svg" xmlns:xlink="http://www.w3.org/1999/xlink" x="0px" y="0px"
	 viewBox="0 0 120 120" style="enable-background:new 0 0 120 120;" xml:space="preserve">
<style type="text/css">
	.st0{fill:#788B8E;}
	.st1{fill:#77898D;}
	.st2{fill:#61C5D8;}
	.st3{fill:#65C6D8;}
	.st4{fill:#758A8D;}
	.st5{fill:#758F8F;}
	.st6{fill:#788B91;}
	.st7{fill:#70878B;}
	.st8{fill:#7E8A92;}
	.st9{fill:#72888B;}
</style>
<g>
	<path class="st0" d="M112.7,69.7C112.8,69.7,112.8,69.7,112.7,69.7c-3.5,10.9-11,17.6-21.5,17.8c-19.9,0.3-39.8,0.4-59.7,0
		C17.9,87.2,7.2,75.5,6.1,60.9C5,47.4,13.8,34.2,26.5,31c3.6-0.9,4.8-2.5,5.6-6.2c3.3-14.7,14.3-24,27.4-23.8
		C73.1,1.3,84.7,11.2,86.7,26c0.9,6.3,2.6,10,8.1,11.7l0,0c0.3,1.1,2,1.8,1.2,3.1c-1.4,2.1-3.4,1.2-5,0.4c-3-1.5-4.3-5.3-7.1-7.2
		c-0.8,1.3-0.8,1,0.3,1.4c1.8,0.7,4.6,2.1,3.8,5c-0.7,2.7-3.3,2.2-5.3,2.2c-5.8,0.1-11.5,0-17.3,0c-2.9,0-5.6-0.3-7.4-3.1
		c-1.4-2.2-3.5-2.1-5.5-2.1c-1.1-0.3-1.7-1.1-1.9-2.2l0,0c1-2.1,5.8-1.8,3.7-5.6c-2-3.7-5-1.5-7.2-0.1c-3.9,2.5-5.8,6.5-4.9,11.4
		c1,5.1,4.2,8.2,9,9.1c2.9,0.5,6,0.3,9,0.4l0,0c7.4,0.9,14.7,0.9,22.1,0l0,0c9.7,0.4,19.5-2,29,1.3c0,0,0,0,0,0c-0.9,2-2.8,3-4,4.7
		l-0.6,0.2l-0.6-0.2c-3.5-1.8-7.3-1.1-10.9-0.9c-9.3,0.3-18.6-1.1-27.9,0.1c2.4,0,4.9-1.3,7.1,0.8v0c-4,1.3-8,2.4-10,7
		c-2.7,6.2,0.7,14.1,6.7,15.3c1.8,0.4,3.9,0.7,4.9-1.6c1.1-2.6-0.7-3.7-2.5-4.2c-2.9-0.9-4.4-2.7-3.8-6c0.7-3.5,3.5-3.5,6.1-3.5
		c11.3,0,22.6,0.1,34-0.1C114.7,63.3,114.9,65.7,112.7,69.7c-0.4-0.4-0.8-1-1-1.6C111.9,68.8,112.3,69.3,112.7,69.7z"/>
	<path class="st1" d="M51.6,36.7c3.2-1.5,6.2-2.4,8,2.2c0.7,1.8,2.2,2.3,4,2.3c6.9,0,13.8,0,20.8,0c1.1,0,2.7,0.1,2.5-1.6
		c-0.1-1-1.2-2.3-2.1-2.8c-2.5-1.3-3.5-4-1.6-5.8c2.4-2.4,3-0.4,3.2,1.9c0.4,4.8,3.7,6.7,7.3,7.7c2.7,0.7,0.9-1.8,1.2-2.8l0,0
		c4,0.8,8.2,1.2,11.3,4.5l0,0c-0.9,2.7-2.8,1.6-4.2,1.6c-15.3,0.1-30.5,0.1-45.8,0c-2.6,0-5.7,1.1-7.3-2.6c0.3-0.5,0.8-0.8,1.2-1
		C51.7,39.7,50.4,37.5,51.6,36.7z"/>
	<path class="st2" d="M54.1,111.9L54.1,111.9c1.6-5,3.3-10.9,5.3-16.7c0.7-2,2.3-3.2,4.4-2.3c2.1,0.9,3.4,2.8,2.7,5.3
		c-1.5,5.5-3.1,10.9-4.7,16.3c-0.9,3.2-3.2,3.2-5.6,2.9C53.5,117.1,54.3,114.8,54.1,111.9z"/>
	<path class="st2" d="M79.2,113.2L79.2,113.2c1.6-5,3.3-10.9,5.3-16.7c0.7-2,2.3-3.2,4.4-2.3c2.1,0.9,3.4,2.8,2.7,5.3
		c-1.5,5.5-3.1,10.9-4.7,16.3c-0.9,3.2-3.2,3.2-5.6,2.9C78.7,118.4,79.4,116,79.2,113.2z"/>
	<path class="st3" d="M37.7,116.1L37.7,116.1c-0.8,2.7-2.7,3.4-4.9,2.4c-2-0.9-2.5-3-2-5.1c1.6-6,3.4-11.9,5.2-17.8
		c0.8-2.4,2.5-3.8,4.9-2.8c2.3,1,2.8,3.3,2.2,5.6c-1.1,4-2.6,7.9-3.9,11.9c-0.3,0.7,0-0.2-0.4,1.2C38.1,114,38.6,113.8,37.7,116.1z"
		/>
	<path class="st4" d="M74.2,56.4c-3-0.5-5.9-0.1-9,1c2.8-4,32.9-4.6,40.6-1C95.3,56.4,84.8,56.4,74.2,56.4z"/>
	<path class="st5" d="M82.1,50.5c-7.4,2-14.7,2-22.1,0C67.4,50.5,74.7,50.5,82.1,50.5z"/>
	<path class="st4" d="M107.1,56.4c0.1-2.8,1.3-4.5,4-4.7l0,0c0.6,1.4,3.1,2.2,2.1,4C111.7,58.5,109.2,56.5,107.1,56.4
		C107.1,56.4,107.1,56.4,107.1,56.4z"/>
	<path class="st6" d="M51.6,36.7c-1.1,1.3,4.7,5-1.4,4.5l0,0c-1.2-1.6-1.1-3.2-0.1-4.8c0-0.4,0.1-0.8,0.4-1.1
		C50.9,35.8,51.2,36.2,51.6,36.7z"/>
	<path class="st7" d="M50.1,36.4c0,1.6,0.1,3.2,0.1,4.8c-0.5,0-0.9,0-1.4,0C47,38.9,47.3,37.3,50.1,36.4z"/>
	<path class="st8" d="M39.5,83.7c12.3,0.4,6.7,0.2,19,0.6l0,0l0,0h-19l0,0L39.5,83.7z"/>
	<path class="st9" d="M112.8,69.7c-1.8,0.1-2.3-0.9-2-2.7c0.1-0.7,0.2-1.7,1-1.2C113.2,66.7,112.5,68.4,112.8,69.7L112.8,69.7z"/>
</g>
</svg>
