<?xml version="1.0" encoding="utf-8"?>
<!-- Generator: Adobe Illustrator 24.0.3, SVG Export Plug-In . SVG Version: 6.00 Build 0)  -->
<svg version="1.1" id="Шар_1" xmlns="http://www.w3.org/2000/svg" xmlns:xlink="http://www.w3.org/1999/xlink" x="0px" y="0px"
	 viewBox="0 0 120 120" style="enable-background:new 0 0 120 120;" xml:space="preserve">
<style type="text/css">
	.st0{fill:#788B8E;}
	.st1{fill:#80C0D0;}
	.st2{fill:#F7D453;}
	.st3{fill:#C5D6DA;}
	.st4{fill:#C6D5DA;}
	.st5{fill:#BFCED3;}
	.st6{fill:#748788;}
</style>
<g>
	<path class="st0" d="M25.6,87.5C13.1,84.3,5.3,75,5.2,63.2C5,51.5,12.2,42.1,24.2,38.3c2.5-0.8,4.8-1,5.7-4.6
		c3.7-14.9,15-23.1,29.3-21.6c13.5,1.4,23,12.1,23.8,27.1c0.1,1.2,0.2,2.4,0.3,3.6c1.8,1.6,3.7,0.9,5.7,0.3
		c11.6,1.7,19.1,9.8,19.5,20.9c0.5,11.8-6,20.2-17.8,23.3c-1.5,0.7-4.6,0.7-6.1,0.5c-13-0.2-22.3,0-37.3-0.2c-0.7,0.2-1.5,0.1-2.2,0
		c-5.8,0.2-9.8,0.2-18.4-0.2C26.3,87.6,26,87.5,25.6,87.5z"/>
	<path class="st1" d="M89.5,1.7c4.6-0.4,5.7,0.9,4.3,5.5c-3.4,11.2,1.3,19.6,12.1,22.6c2.9,0.8,6.6,0.9,4.7,5.2
		c-1.7,3.8-4.5,7.9-9.4,5.9C95,38.4,87,37.6,86.6,27.4c-0.2-5.3-4.8-9.7-9-13.1c-3.9-3.1-2.6-5.2,0.2-7.4
		C81.4,4.1,84.9,1.5,89.5,1.7z"/>
	<path class="st2" d="M114.8,21c-0.9,1.4-0.4,4.1-3,3.6c-2.3-0.4-4.3-2.1-4.6-4.2c-0.2-2,2.1-3.5,4-3.2C113,17.5,115,18.6,114.8,21z
		"/>
	<path class="st3" d="M27.3,101.9c0.2-0.5,0.8-3.8,1-4.3c1.1-2.5,0.5-3.6,2.7-3.9c0.7-0.1,2.5,0.3,2.5,1c0.1,3.5-1.4,4.8-2.2,7.2
		C29.9,103.1,28.6,103.2,27.3,101.9z"/>
	<path class="st4" d="M28.5,109.8c-0.2,0.4-0.5,0.9-0.5,1.3c-0.2,2.5,0.7,5.4-2.3,7c-0.9,0.5-2,0.3-2.5-0.7c-2-3.4,1.3-5.2,2.4-7.7
		C26.5,109,27.5,109,28.5,109.8z"/>
	<path class="st5" d="M29.3,108c-1,0-2,0-3,0c-0.5-2.3-0.6-1.5,0.1-3.8c0.9-1.4,2.8-0.5,4.2-0.5C31.1,103.6,31,106.9,29.3,108z"/>
	<path class="st6" d="M89,43.2c-2,1.7-3.9,2.4-5.7-0.3C85.2,43,87.1,43.1,89,43.2z"/>
	<path class="st3" d="M41.5,101.9c0.2-0.5,0.8-3.8,1-4.3c1.1-2.5,0.5-3.6,2.7-3.9c0.7-0.1,2.5,0.3,2.5,1c0.1,3.5-1.4,4.8-2.2,7.2
		C44.2,103.1,42.9,103.2,41.5,101.9z"/>
	<path class="st4" d="M42.8,109.8c-0.2,0.4-0.5,0.9-0.5,1.3c-0.2,2.5,0.7,5.4-2.3,7c-0.9,0.5-2,0.3-2.5-0.7c-2-3.4,1.3-5.2,2.4-7.7
		C40.8,109,41.8,109,42.8,109.8z"/>
	<path class="st5" d="M43.5,108c-1,0-2,0-3,0c-0.5-2.3-0.6-1.5,0.1-3.8c0.9-1.4,2.8-0.5,4.2-0.5C45.4,103.6,45.3,106.9,43.5,108z"/>
	<path class="st3" d="M56.1,101.6c0.2-0.5,0.8-3.8,1-4.3c1.1-2.5,0.5-3.6,2.7-3.9c0.7-0.1,2.5,0.3,2.5,1c0.1,3.5-1.4,4.8-2.2,7.2
		C58.8,102.7,57.5,102.8,56.1,101.6z"/>
	<path class="st4" d="M57.4,109.5c-0.2,0.4-0.5,0.9-0.5,1.3c-0.2,2.5,0.7,5.4-2.3,7c-0.9,0.5-2,0.3-2.5-0.7c-2-3.4,1.3-5.2,2.4-7.7
		C55.4,108.7,56.4,108.7,57.4,109.5z"/>
	<path class="st5" d="M58.1,107.7c-1,0-2,0-3,0c-0.5-2.3-0.6-1.5,0.1-3.8c0.9-1.4,2.8-0.5,4.2-0.5C60,103.3,59.9,106.6,58.1,107.7z"
		/>
	<path class="st3" d="M71.6,101.6c0.2-0.5,0.8-3.8,1-4.3c1.1-2.5,0.5-3.6,2.7-3.9c0.7-0.1,2.5,0.3,2.5,1c0.1,3.5-1.4,4.8-2.2,7.2
		C74.3,102.7,72.9,102.8,71.6,101.6z"/>
	<path class="st4" d="M72.8,109.5c-0.2,0.4-0.5,0.9-0.5,1.3c-0.2,2.5,0.7,5.4-2.3,7c-0.9,0.5-2,0.3-2.5-0.7c-2-3.4,1.3-5.2,2.4-7.7
		C70.8,108.7,71.8,108.7,72.8,109.5z"/>
	<path class="st5" d="M73.6,107.7c-1,0-2,0-3,0c-0.5-2.3-0.6-1.5,0.1-3.8c0.9-1.4,2.8-0.5,4.2-0.5C75.5,103.3,75.3,106.6,73.6,107.7
		z"/>
</g>
</svg>
