<?xml version="1.0" encoding="utf-8"?>
<!-- Generator: Adobe Illustrator 24.0.3, SVG Export Plug-In . SVG Version: 6.00 Build 0)  -->
<svg version="1.1" id="Шар_1" xmlns="http://www.w3.org/2000/svg" xmlns:xlink="http://www.w3.org/1999/xlink" x="0px" y="0px"
	 viewBox="0 0 120 120" style="enable-background:new 0 0 120 120;" xml:space="preserve">
<style type="text/css">
	.st0{fill:#788B8E;}
	.st1{fill:#F7CD41;}
	.st2{fill:#F8CE45;}
	.st3{fill:#FACE44;}
	.st4{fill:#C0D0D5;}
	.st5{fill:#C2D0D7;}
	.st6{fill:#BFCFD5;}
	.st7{fill:#BFCED4;}
	.st8{fill:#C8D6DB;}
	.st9{fill:#BFCFD3;}
	.st10{fill:#76868B;}
	.st11{fill:#C1D1D6;}
	.st12{fill:#BECFD4;}
	.st13{fill:#BFCCD2;}
	.st14{fill:#BDCDD4;}
	.st15{fill:#B7CBD0;}
	.st16{fill:#B9CACF;}
	.st17{fill:#BACBD1;}
	.st18{fill:#BACBD0;}
	.st19{fill:#FCCE4B;}
	.st20{fill:#748788;}
	.st21{fill:#76868A;}
</style>
<g>
	<path class="st0" d="M22.3,91.7C10.8,89.4,2.9,80.3,1.9,68.1C1,57.5,7.8,45.8,18,42.5c5.4-1.8,8.1-3.7,9.7-10
		c3.1-12.2,15.8-19.6,28.3-18.3c12.5,1.4,21.7,10.7,23.7,24.3c0.4,2.5,0.4,5,0.5,7.6c1.9,1.5,3.8,0.9,5.7,0.3
		c11.7,1.8,19.2,10.2,19.5,21.8c0.4,12.2-6.5,22-18.1,23.9c-15.1,2.4-30.4,0.7-45.6,0.9c-6.1,0.1-12.2,1.2-18.2-0.9
		c4.4-1.9,8.9-0.3,13.3-1.1C32,91.6,27.1,89.9,22.3,91.7z"/>
	<path class="st1" d="M106.8,37.1c-0.9,4,3.1,4.7,5.1,6.7c0.9,0.9,3.9,2.3,3.3,3.8c-0.6,1.7-5.9-1.1-4.1-0.5
		c-3.1,0.4-14.1-2.9-20.9-5.4c-1.5-0.5-2.6-0.8-2.8-2.7c-0.4-5-3.3-9.2-4.5-13.9c-0.7-2.2-1.4-4.4-1.4-6.8c0.1-1.1,0.7-1.9,1.4-2.7
		c4.6-3,3.5-12.5,5-13c2.7,0,2.2,4.5,2.5,6.9c0.3,1.8-0.7,4.4,2.3,4.6c2.1,0.2,3.8,0.3,5.5-2.3c0.8-1.2,1.7-2.3,2.6-3.5
		c0.7-1,3-1.7,3.6-1.1c1.2,1.3,0.1,2.2-0.4,3.2c-1.5,3.1-4.3,5.7-3.1,9.7c2.2,2.3,3.7,5.2,5.6,7.8c0.2,0.4,0.3,0.9,0.3,1.4
		C106.5,31.8,106.5,34.4,106.8,37.1z"/>
	<path class="st2" d="M106.5,27.8c-4.2-0.8-5.9-3.5-5.6-7.8c3.8,1.4,11.5-2.6,11.5-0.6C112.4,21.8,106.3,23.6,106.5,27.8z"/>
	<path class="st3" d="M106.8,37.1c-2.4-2.6-2.3-5.3,0-7.9c2.7,2.4,5.9,1.5,9,1.7c1.2,0.1,2.4,0.9,2.4,1.9c0,1-1.2,1.7-2.5,1.9
		C112.3,35,109.2,34.3,106.8,37.1z"/>
	<path class="st4" d="M81.5,106.9c0.6-2.9-1.3-6.7,2.6-8.3c0.6-0.2,2.1,0.4,2.4,1.1c1.8,3.7-2.8,4.6-3.4,7.3
		C82.5,107.3,82,107.3,81.5,106.9z"/>
	<path class="st5" d="M43,103.9c-1,3.3,0.2,7.8-4.5,9.1l0.1,0c-2.8-3.6-0.4-6.4,1.5-9.2C41.1,103,42.1,103.1,43,103.9z"/>
	<path class="st6" d="M26.7,111.5c-0.1,0.2-0.2,0.5-0.3,0.7c-1,2.3,0.9,5.7-2.4,7.2c-1,0.5-1.9,0.3-2.5-0.7
		c-1.9-3.3,1.5-4.9,2.4-7.3C24.8,110.6,25.8,110.7,26.7,111.5z"/>
	<path class="st7" d="M54.8,111.5c-0.1,0.2-0.2,0.5-0.3,0.7c-1,2.3,0.9,5.7-2.4,7.2c-1,0.5-1.9,0.3-2.5-0.7
		c-1.9-3.3,1.5-4.8,2.3-7.3C52.9,110.6,53.9,110.7,54.8,111.5z"/>
	<path class="st8" d="M68.4,111.6c-0.6,2.8,1,6.3-2.3,8.2c-0.6,0.3-2.2-0.1-2.6-0.7c-2.4-3.9,2.6-4.8,3.1-7.6
		C67.2,111.2,67.8,111.2,68.4,111.6z"/>
	<path class="st9" d="M83,111.5c-0.2,0.5-0.4,0.9-0.6,1.4c-1.1,2.2,1.2,5.9-2.8,6.7c-0.5,0.1-1.5-0.4-1.8-0.9
		c-2-3.3,1.5-4.8,2.3-7.2C81.1,110.6,82,110.7,83,111.5z"/>
	<path class="st10" d="M22.3,91.7c5.7-3.6,11.7,0,17.4-1.9c0,0.7,0,1.4,0.1,2c-5.4,0-10.8,0-16.3,0l-0.6,0.1L22.3,91.7z"/>
	<path class="st11" d="M53.3,106.9c0-1.3,0.1-2.5,0.1-3.8c0-1.9,0.5-3.6,2.8-3.7c0.7,0,1.7,0.2,2,0.6c1.3,2.1-0.6,3.1-1.6,4.4
		c-0.6,0.8-1.1,1.6-1.7,2.5C54.4,107.3,53.9,107.3,53.3,106.9z"/>
	<path class="st12" d="M38.5,113c1.1,2.2,2.5,4.5-0.1,6.6c-0.9,0.7-2,0.5-2.4-0.5C35,116.3,36.1,114.3,38.5,113
		C38.6,113.1,38.5,113,38.5,113z"/>
	<path class="st13" d="M72.4,102c-0.1,1.4-0.9,2.5-2.1,2.7c-1.6,0.2-2-1-2-2.4s0.6-2.5,2-2.6C71.7,99.6,72.5,100.4,72.4,102z"/>
	<path class="st14" d="M68.4,111.6c-0.6,0-1.2,0-1.8,0c-1.5-1.5-1.8-3,0.1-4.3c1-0.7,2.6-0.8,3.3,0.3
		C71.6,109.7,69.7,110.6,68.4,111.6z"/>
	<path class="st15" d="M26.8,105.5c-1-2-2.1-4.2,0.7-5.6c0.6-0.3,2.2,0.3,2.4,0.8C30.9,103.6,28.5,104.3,26.8,105.5L26.8,105.5z"/>
	<path class="st16" d="M26.7,111.5c-0.9,0-1.9,0-2.8,0c-0.5-2.8,0.3-4.9,2.9-6l-0.1-0.1C27.5,107.4,29.4,109.5,26.7,111.5z"/>
	<path class="st17" d="M43,103.9c-1,0-1.9,0-2.9,0c0-1.9-0.5-4.6,2.3-4.2C45.2,100.2,44.7,102.2,43,103.9z"/>
	<path class="st17" d="M53.3,106.9c0.5,0,1.1,0,1.6,0c1.8,1.6,1.8,3.1-0.1,4.6c-0.9,0-1.9,0-2.8,0C51.8,109.8,51.6,108.1,53.3,106.9
		z"/>
	<path class="st18" d="M83,111.5c-0.9,0-1.9,0-2.8,0c-0.2-1.7-0.3-3.4,1.3-4.6c0.5,0,1.1,0,1.6,0C85,108.5,84.8,110,83,111.5z"/>
	<path class="st19" d="M81.8,21c-4.5-4.8-9.4-13.9-7-14c2.4-0.1,6.7,7.4,8.1,8.5C81.5,16.8,85.1,17.6,81.8,21z"/>
	<path class="st20" d="M85.9,46.3c-2,1.3-4,2.9-5.7-0.3C82.1,46.1,84,46.2,85.9,46.3z"/>
	<path class="st21" d="M81.3,91.4c-12.1,0-24.3,0-36.4,0C57,90.1,69.1,88.9,81.3,91.4z"/>
</g>
</svg>
