<?xml version="1.0" encoding="utf-8"?>
<!-- Generator: Adobe Illustrator 24.0.3, SVG Export Plug-In . SVG Version: 6.00 Build 0)  -->
<svg version="1.1" id="Шар_1" xmlns="http://www.w3.org/2000/svg" xmlns:xlink="http://www.w3.org/1999/xlink" x="0px" y="0px"
	 viewBox="0 0 120 120" style="enable-background:new 0 0 120 120;" xml:space="preserve">
<style type="text/css">
	.st0{fill:#788B8E;}
	.st1{fill:#80C0D0;}
	.st2{fill:#ABB5B9;}
	.st3{fill:#F7D453;}
	.st4{fill:#C8D6DB;}
	.st5{fill:#C5D6DA;}
	.st6{fill:#C8D6DA;}
	.st7{fill:#C9D7DC;}
	.st8{fill:#C6D5DA;}
	.st9{fill:#C5D4D9;}
	.st10{fill:#CAD6DB;}
	.st11{fill:#C3D2D7;}
	.st12{fill:#C2D1D6;}
	.st13{fill:#C2D0D5;}
	.st14{fill:#C1D1D6;}
	.st15{fill:#C2D0D7;}
	.st16{fill:#C2D0D6;}
	.st17{fill:#BFCED3;}
	.st18{fill:#BFCFD6;}
	.st19{fill:#748788;}
	.st20{fill:#76868A;}
	.st21{fill:#76868B;}
</style>
<g>
	<g>
		<path class="st0" d="M25.8,90.3C13.3,87,5.6,77.4,5.4,65.1c-0.2-12,7-21.8,19-25.7c2.5-0.8,4.8-1.1,5.7-4.7
			c3.7-15.5,15-23.9,29.2-22.4c13.5,1.4,22.9,12.6,23.7,28.1c0.1,1.3,0.2,2.5,0.3,3.8c1.8,1.7,3.7,1,5.6,0.3
			c11.5,1.8,19,10.1,19.4,21.7c0.5,12.2-6,21-17.7,24.1c-1.5,0.7-3,0.5-4.6,0.3C73,89,60.1,90,47.2,90.2c-0.7,0.2-1.4,0.3-2.1,0.3
			c-6.1-1.1-12.2-0.4-18.4-0.5C26.4,90.1,26.1,90.2,25.8,90.3z"/>
		<path class="st1" d="M89.4,1.4c4.6-0.4,5.7,1,4.3,5.7c-3.4,11.6,1.3,20.3,12.1,23.4c2.9,0.8,6.6,1,4.7,5.4
			c-1.7,3.9-4.5,8.2-9.4,6.1c-6.3-2.7-14.2-3.5-14.6-14c-0.2-5.4-4.7-10.1-8.9-13.5c-3.9-3.2-2.6-5.3,0.2-7.7
			C81.3,3.9,84.8,1.2,89.4,1.4z"/>
		<path class="st2" d="M44.7,89.9c0.5,0,1.1,0,1.6,0c13.2-1,26.3-1.3,39.5,0c1.6,0.1,3.1,0.2,4.7,0.4c-1.6,1.5-3.6,1.3-5.5,1.3
			c-18.2,0-36.3,0-54.5,0c-1.7,0-3.4,0.2-4.8-1.2l-0.1-0.7C32,89.2,38.4,88.7,44.7,89.9z"/>
		<path class="st3" d="M114.6,21.4c-0.9,1.5-0.4,4.2-3,3.8c-2.3-0.4-4.3-2.2-4.5-4.4c-0.2-2.1,2.1-3.6,4-3.3
			C112.8,17.8,114.8,19,114.6,21.4z"/>
		<path class="st4" d="M55.2,105.2c0.3-0.7,0.6-1.3,0.9-2c0.9-2.3-0.4-5.9,3.4-6.5c0.7-0.1,1.8,0.7,2.3,1.4c1.8,3.3-1.6,4.7-2.4,7.1
			C57.9,106.4,56.6,106.5,55.2,105.2z"/>
		<path class="st5" d="M27.4,105.3c0.2-0.5,0.3-1,0.5-1.4c1.3-2.3-0.2-6,3.1-7.1c0.7-0.2,2.1,0.4,2.5,1c1.7,3.1-1.4,5-2.1,7.5
			C30.1,106.4,28.7,106.5,27.4,105.3z"/>
		<path class="st6" d="M83.1,105.2c0.4-1.4,1-2.8,1.3-4.2c0.3-2,0.5-4.1,3-4.3c0.7-0.1,1.8,0.7,2.3,1.4c1.3,2.1,0.3,3.7-1.4,5.1
			c-0.7,0.6-1.4,1.3-2.1,1.9C85.2,106,84.2,106.1,83.1,105.2z"/>
		<path class="st7" d="M72.6,109.8c-0.2,0.4-0.3,0.9-0.6,1.3c-1.5,2.3,0.4,6.4-3.6,7.2c-0.7,0.1-1.9-0.6-2.3-1.3
			c-1.4-3,1.5-4.9,2.3-7.3C69.9,108.6,71.3,108.5,72.6,109.8z"/>
		<path class="st8" d="M30.2,109.8c-0.2,0.5-0.5,0.9-0.5,1.4c-0.2,2.6,0.7,5.6-2.3,7.2c-0.9,0.5-2,0.4-2.5-0.7
			c-1.9-3.5,1.3-5.4,2.4-8C28.2,109,29.2,109,30.2,109.8z"/>
		<path class="st9" d="M41.8,105.2c0.1-0.2,0.2-0.5,0.3-0.7c0.8-2.6-0.6-6.2,3-7.6c1.1-0.4,1.9-0.1,2.4,1c1.3,3.3-1.7,4.9-2.6,7.4
			C43.9,106,42.9,106,41.8,105.2z"/>
		<path class="st10" d="M69.7,105.2c0.2-0.5,0.5-0.9,0.6-1.4c0.3-2.6-0.9-5.7,2.3-7.1c0.6-0.2,1.9,0.5,2.4,1.2
			c2,3.2-1.4,4.8-2.2,7.2C71.8,106.2,70.8,106,69.7,105.2z"/>
		<path class="st11" d="M43.6,109.9c0,0.2-0.1,0.5-0.1,0.7c-0.5,2.6,0.9,5.9-2.3,7.5c-0.6,0.3-2.1-0.1-2.5-0.7
			c-2.5-3.9,2.5-4.8,2.9-7.6C42.3,109.3,43,109.4,43.6,109.9z"/>
		<path class="st12" d="M55.2,105.2c1.4,0,2.7,0,4.1,0c1.3,3.4-1.7,5.1-2.7,7.6c-1,0.8-2,0.8-3,0C55.3,110.6,52.9,107.3,55.2,105.2z
			"/>
		<path class="st13" d="M83.1,105.2c1,0,2-0.1,3-0.1c3.4,3.5-1.1,5.1-1.7,7.7c-1,0.8-2,0.8-3,0C83.3,110.6,80.8,107.3,83.1,105.2z"
			/>
		<path class="st14" d="M81.4,112.8c1,0,2,0,3,0c2.4,2.1,0.4,3.5-0.9,4.7c-0.9,0.9-2.3,1.3-3-0.1C79.7,115.8,79.8,114.1,81.4,112.8z
			"/>
		<path class="st15" d="M43.6,109.9c-0.7,0-1.4,0-2-0.1c-1.6-1.6-1.6-3.2,0.2-4.7c1,0,2,0,3,0C47.1,107.5,46.4,109,43.6,109.9z"/>
		<path class="st16" d="M53.5,112.8c1,0,2,0,3,0c2.5,2.2,0.3,3.5-1,4.8c-0.8,0.8-1.8,0.7-2.5-0.2C51.8,115.7,51.9,114.2,53.5,112.8z
			"/>
		<path class="st17" d="M30.2,109.8c-1,0-2,0-3,0c-2.2-1.6-0.4-3,0.2-4.5c1.3,0,2.7,0,4,0C31.7,107,31.9,108.7,30.2,109.8z"/>
		<path class="st18" d="M69.7,105.2c1,0,2,0,3,0c1.1,1.6,1,3.1-0.1,4.6c-1.4,0-2.8,0-4.1,0C68.3,108,68,106.3,69.7,105.2z"/>
		<path class="st19" d="M88.8,44.4c-2,1.8-3.9,2.5-5.6-0.3C85.1,44.2,86.9,44.3,88.8,44.4z"/>
		<path class="st20" d="M85.9,89.9c-13.2,0-26.4,0-39.5,0C59.5,87.6,72.7,86.6,85.9,89.9z"/>
		<path class="st21" d="M44.7,89.9c-6.4-0.1-12.7-0.2-19.1-0.3C32,87.5,38.4,87.8,44.7,89.9z"/>
	</g>
</g>
</svg>
