<?xml version="1.0" encoding="utf-8"?>
<!-- Generator: Adobe Illustrator 24.0.3, SVG Export Plug-In . SVG Version: 6.00 Build 0)  -->
<svg version="1.1" id="Шар_1" xmlns="http://www.w3.org/2000/svg" xmlns:xlink="http://www.w3.org/1999/xlink" x="0px" y="0px"
	 viewBox="0 0 120 120" style="enable-background:new 0 0 120 120;" xml:space="preserve">
<style type="text/css">
	.st0{fill:#788B8E;}
	.st1{fill:#80C0D0;}
	.st2{fill:#F7D453;}
	.st3{fill:#C5D6DA;}
	.st4{fill:#C6D5DA;}
	.st5{fill:#BFCED3;}
	.st6{fill:#748788;}
</style>
<g>
	<path class="st0" d="M24.9,88.4C12,85.2,3.9,76,3.7,64.3c-0.2-11.5,7.3-20.9,19.8-24.6c2.6-0.8,5-1,5.9-4.5
		C33.2,20.3,45,12.2,59.8,13.7c14,1.4,23.8,12,24.6,26.9c0.1,1.2,0.2,2.4,0.3,3.6c1.9,1.6,3.9,0.9,5.9,0.2
		c12,1.7,19.8,9.7,20.2,20.8c0.5,11.7-6.2,20.1-18.4,23.1C90.8,89,87.6,89,86,88.8c-13.4-0.2-23.1,0-38.6-0.2
		c-0.7,0.2-1.6,0.1-2.3,0c-6,0.2-10.1,0.2-19.1-0.2C25.6,88.5,25.3,88.4,24.9,88.4z"/>
	<path class="st1" d="M91.2,3.2c4.8-0.4,5.9,0.9,4.5,5.5c-3.5,11.1,1.3,19.4,12.6,22.4c3,0.8,6.9,0.9,4.9,5.2
		c-1.7,3.8-4.7,7.9-9.8,5.9c-6.6-2.6-14.8-3.4-15.2-13.4c-0.2-5.2-4.9-9.6-9.3-13c-4-3.1-2.7-5.1,0.2-7.4
		C82.7,5.7,86.4,3.1,91.2,3.2z"/>
	<path class="st2" d="M117.4,22.4c-0.9,1.4-0.4,4-3.1,3.6c-2.4-0.4-4.5-2.1-4.7-4.2c-0.2-2,2.2-3.5,4.2-3.2
		C115.5,18.9,117.6,20.1,117.4,22.4z"/>
	<path class="st3" d="M26.7,102.7c0.2-0.5,0.9-3.8,1.1-4.2c1.1-2.5,0.5-3.6,2.8-3.9c0.7-0.1,2.5,0.3,2.6,1c0.1,3.5-1.5,4.8-2.2,7.1
		C29.4,103.8,28,103.9,26.7,102.7z"/>
	<path class="st4" d="M27.9,110.6c-0.2,0.4-0.5,0.9-0.6,1.3c-0.2,2.5,0.7,5.4-2.4,6.9c-0.9,0.5-2,0.3-2.6-0.7
		c-2-3.4,1.3-5.2,2.5-7.6C25.9,109.8,26.9,109.8,27.9,110.6z"/>
	<path class="st5" d="M28.7,108.8c-1,0-2.1,0-3.1,0c-0.5-2.3-0.6-1.5,0.1-3.8c1-1.3,2.9-0.5,4.3-0.5
		C30.7,104.4,30.5,107.7,28.7,108.8z"/>
	<path class="st6" d="M90.6,44.4c-2,1.7-4,2.4-5.9-0.2C86.7,44.3,88.6,44.3,90.6,44.4z"/>
	<path class="st3" d="M41.4,102.7c0.2-0.5,0.9-3.8,1.1-4.2c1.1-2.5,0.5-3.6,2.8-3.9c0.7-0.1,2.5,0.3,2.6,1c0.1,3.5-1.5,4.8-2.2,7.1
		C44.2,103.8,42.8,103.9,41.4,102.7z"/>
	<path class="st4" d="M42.7,110.6c-0.2,0.4-0.5,0.9-0.6,1.3c-0.2,2.5,0.7,5.4-2.4,6.9c-0.9,0.5-2,0.3-2.6-0.7
		c-2-3.4,1.3-5.2,2.5-7.6C40.7,109.8,41.7,109.8,42.7,110.6z"/>
	<path class="st5" d="M43.5,108.8c-1,0-2.1,0-3.1,0c-0.5-2.3-0.6-1.5,0.1-3.8c1-1.3,2.9-0.5,4.3-0.5
		C45.4,104.4,45.3,107.7,43.5,108.8z"/>
	<path class="st3" d="M56.6,102.4c0.2-0.5,0.9-3.8,1.1-4.2c1.1-2.5,0.5-3.6,2.8-3.9c0.7-0.1,2.5,0.3,2.6,1c0.1,3.5-1.5,4.8-2.2,7.1
		C59.3,103.5,57.9,103.6,56.6,102.4z"/>
	<path class="st4" d="M57.9,110.2c-0.2,0.4-0.5,0.9-0.6,1.3c-0.2,2.5,0.7,5.4-2.4,6.9c-0.9,0.5-2,0.3-2.6-0.7
		c-2-3.4,1.3-5.2,2.5-7.6C55.8,109.4,56.8,109.4,57.9,110.2z"/>
	<path class="st5" d="M58.7,108.4c-1,0-2.1,0-3.1,0c-0.5-2.3-0.6-1.5,0.1-3.8c1-1.3,2.9-0.5,4.3-0.5C60.6,104,60.4,107.3,58.7,108.4
		z"/>
	<path class="st3" d="M72.6,102.4c0.2-0.5,0.9-3.8,1.1-4.2c1.1-2.5,0.5-3.6,2.8-3.9c0.7-0.1,2.5,0.3,2.6,1c0.1,3.5-1.5,4.8-2.2,7.1
		C75.4,103.5,74,103.6,72.6,102.4z"/>
	<path class="st4" d="M73.9,110.2c-0.2,0.4-0.5,0.9-0.6,1.3c-0.2,2.5,0.7,5.4-2.4,6.9c-0.9,0.5-2,0.3-2.6-0.7
		c-2-3.4,1.3-5.2,2.5-7.6C71.8,109.4,72.8,109.4,73.9,110.2z"/>
	<path class="st5" d="M74.7,108.4c-1,0-2.1,0-3.1,0c-0.5-2.3-0.6-1.5,0.1-3.8c1-1.3,2.9-0.5,4.3-0.5C76.6,104,76.5,107.3,74.7,108.4
		z"/>
</g>
</svg>
