<?xml version="1.0" encoding="utf-8"?>
<!-- Generator: Adobe Illustrator 24.0.3, SVG Export Plug-In . SVG Version: 6.00 Build 0)  -->
<svg version="1.1" id="Шар_1" xmlns="http://www.w3.org/2000/svg" xmlns:xlink="http://www.w3.org/1999/xlink" x="0px" y="0px"
	 viewBox="0 0 120 120" style="enable-background:new 0 0 120 120;" xml:space="preserve">
<style type="text/css">
	.st0{fill:#8FA8B0;}
	.st1{fill:#F7D047;}
	.st2{fill:#8CA7AC;}
	.st3{fill:#BFD0D6;}
	.st4{fill:#C0D1D6;}
	.st5{fill:#BDCFD4;}
	.st6{fill:#BECFD4;}
	.st7{fill:#F8CE35;}
	.st8{fill:#F2F5F6;}
	.st9{fill:#F4F7F8;}
	.st10{fill:#F3F7F8;}
	.st11{fill:#F4F7F7;}
	.st12{fill:#F9D04E;}
</style>
<g>
	<path class="st0" d="M28.3,91.5C15.2,91.2,5.5,82.7,3.7,69.9C2,57.8,9.1,46.1,21,42.5c4.3-1.3,6-3.6,7.2-7.8
		c4-13.3,15.1-20.4,28.5-18.8C68.5,17.3,78.3,27.6,79,40.5c0.3,5.5,3.4,5.6,6.9,6.3C98,49.2,105.2,59.3,104,72.2
		c-1,11.1-9.9,18.9-22,19.3c-8.4-1.3-16.9,0-25.4-0.7c-3.1-1.7,0.2-5.6-2.5-7.9c-3.4,2.1,0.7,5.4-1.2,7.5C47.7,92,42.3,90,37.1,91.5
		c-0.5,0-1.1,0-1.6,0C33.1,90.6,30.7,90.6,28.3,91.5z"/>
	<path class="st1" d="M108.4,48.4c-6.4-2.8-13.7-2.9-19.9-6.4c-1.4-0.8-4-0.6-4-2.6C83.9,28.3,73.5,19.6,71.1,9.4
		c-0.2-3.4,1-4.7,3.7-2.7c1.6,1.6,3,6.8,6.3,6.1c3.6-0.7,2.1-3.9,2.4-6.1c0.2-2.2,0-5,2.9-5.1c3-0.1,2.8,2.7,3,4.9
		c0.3,2.3-1.2,5.4,2.2,6.3c3.3,0.9,3.7-2.4,5-4.3c1.1-1.7,2.2-3.8,4.5-2.7c2.8,1.4,1.6,3.8,0.6,5.7c-3.7,6.6-2.5,8.6,4.9,6.1
		c1.7-0.6,3.7-2.5,4.8-1c1.6,2.3-2.1,4.2-2.9,5.3c-4.5,6.5-4.4,6.7,3.5,7.6c2,0.2,4.3,0.1,4.5,2.6c0.2,3.2-2.5,3-4.6,3.2
		c-7.8,0.8-7.9,1.3-3.4,8.4C109.5,45.3,109.6,46.9,108.4,48.4z"/>
	<path class="st2" d="M37.1,91.5c4.9-3.4,11.1,1,15.9-2.7c0.9-0.9,1.8-1,2.9-0.3c4,3.3,8.7,1,13,1.7c4.4,0.7,9-1.3,13.2,1.3
		C67.1,91.5,52.1,91.5,37.1,91.5z"/>
	<path class="st3" d="M64.3,94.8c2.9,0,4.3,1.9,4.2,4.2c0,2.8-2,4.5-4.8,4.4c-2.4-0.1-4.3-1.9-4.2-4.2C59.6,96.4,61.7,95,64.3,94.8z
		"/>
	<path class="st4" d="M78.8,113.6c-0.4,2.7-1.9,4.5-4.6,4.7c-2.6,0.2-3.9-1.9-4.2-4.1c-0.4-3,1.8-4.3,4.4-4.5
		C77.2,109.4,78.1,111.4,78.8,113.6z"/>
	<path class="st5" d="M48.2,98.8c-0.5,2.7-1.9,4.5-4.7,4.7c-2.3,0.1-3.5-1.5-3.7-3.7c-0.2-2.8,0.9-4.7,3.9-4.9
		C46.6,94.6,47.4,96.7,48.2,98.8z"/>
	<path class="st6" d="M38.1,113.9c-0.6,2.6-2.1,4.4-4.8,4.4c-2.6-0.1-3.6-2.1-3.5-4.6c0.1-2.6,1.6-4,4.1-4
		C36.6,109.6,37.4,111.6,38.1,113.9z"/>
	<path class="st5" d="M58.4,113.9c-0.4,2.4-1.8,4.1-4.2,4.4c-2.7,0.3-4-1.4-4.1-4c-0.1-2.6,1-4.4,3.7-4.4
		C56.3,109.8,57.7,111.5,58.4,113.9z"/>
	<path class="st7" d="M108.4,48.4c0-1.6,0.1-3.1,0.1-4.6c1.7,0.3,3.1,0.9,2.9,3.1C111.1,48.9,109.9,48.9,108.4,48.4z"/>
	<path class="st2" d="M28.3,91.5c2.4-1.9,4.7-1.9,7.1,0C33.1,91.5,30.7,91.5,28.3,91.5z"/>
	<path class="st8" d="M64.1,73.7c-2.5-0.4-4-1.8-3.9-4.4c0.1-2.5,1.4-4.3,4-4.1c2.4,0.2,4.2,1.8,4.1,4.3
		C68.2,71.9,66.5,73.4,64.1,73.7z"/>
	<path class="st9" d="M33.6,88.6c-2.6-0.3-4-1.8-3.9-4.4c0.1-2.5,1.4-4.3,4-4.1c2.4,0.1,4.1,1.8,4,4.3
		C37.7,86.8,35.9,88.2,33.6,88.6z"/>
	<path class="st10" d="M55.9,88.6c-1,0.1-1.9,0.2-2.9,0.3c-2.9-1.8-4.2-4.3-2-7.4c1.3-1.8,3.3-2.1,5.1-0.5
		C59.1,83.5,58,86.1,55.9,88.6z"/>
	<path class="st11" d="M44,65.1c2.5,0.6,3.7,2.3,3.4,4.8c-0.2,2.2-1.5,3.8-3.7,3.7c-2.6-0.1-3.9-1.8-3.8-4.4
		C40,66.7,41.4,65.3,44,65.1z"/>
	<path class="st9" d="M74.2,88.6c-2.5-0.4-3.9-1.9-3.7-4.5c0.1-2.5,1.6-4.2,4.2-3.9c2.2,0.2,3.4,1.8,3.4,4
		C78,86.7,76.7,88.2,74.2,88.6z"/>
	<path class="st12" d="M100,25.9c-3.6,0.3-3.3-1.8-3-4.7C98.2,23,99,24.3,100,25.9z"/>
</g>
</svg>
