<?xml version="1.0" encoding="utf-8"?>
<!-- Generator: Adobe Illustrator 24.0.3, SVG Export Plug-In . SVG Version: 6.00 Build 0)  -->
<svg version="1.1" id="Шар_1" xmlns="http://www.w3.org/2000/svg" xmlns:xlink="http://www.w3.org/1999/xlink" x="0px" y="0px"
	 viewBox="0 0 120 120" style="enable-background:new 0 0 120 120;" xml:space="preserve">
<style type="text/css">
	.st0{fill:#788B8E;}
	.st1{fill:#81C0D0;}
	.st2{fill:#7FC0D0;}
	.st3{fill:#C1D1D6;}
	.st4{fill:#BECFD4;}
	.st5{fill:#BCCED3;}
	.st6{fill:#BDCFD5;}
	.st7{fill:#BDCED3;}
	.st8{fill:#7A8A8F;}
	.st9{fill:#768A90;}
	.st10{fill:#F7D253;}
	.st11{fill:#758689;}
	.st12{fill:#86C1D0;}
	.st13{fill:#EBEFEF;}
	.st14{fill:#EDF0F1;}
	.st15{fill:#EFF2F3;}
	.st16{fill:#EDF1F1;}
	.st17{fill:#F4F7F8;}
	.st18{fill:#86C0D1;}
	.st19{fill:#86BFCF;}
	.st20{fill:#85BECF;}
</style>
<g>
	<path class="st0" d="M61.7,13.9c12.5,2.5,20,11.1,21.5,25.2c0.4,3.3,0.6,5.1,4.7,5.6c14.3,1.7,22.2,11.8,20.8,25.8
		c-1.2,12.6-11.2,20.6-25.1,20.1c-1.1-1.2-3-1.5-3.5-3.3c-0.1-0.7-0.1-1.5-0.1-2.2c0-1.5-0.2-3.3-2-3.3c-2.2,0-1.6,2-1.4,3.3
		c0.2,1.2,0.5,2.4-0.6,3.4c-2,1.1-4.1,0.7-6.2,0.6c-2.6-0.9-5.7-0.6-8-2.7c-0.4-0.6-0.6-1.2-0.6-2c0.5-3-1-6,0.1-8.8
		c0.8-1-0.5-0.1-0.5,0c0.4,1.8-1,2.4-2.4,2.8c-0.9,0.3-1.8,0.6-2.4,1.4c-1.4,2.4-0.6,5-0.6,7.6c-0.1,1.6-1,2.4-2.4,3
		c-3,0-5.9,0-8.9,0c-2.3-1.6-5.6,1-7.6-1.9c-0.4-2.1,1.7-4,0.1-6.6c-3.3,1.3-1.7,3.8-1.5,5.7c0,1.1-0.3,2-1.1,2.8
		C18.6,91.3,7.9,83.2,5.3,69.2c-2.4-13.1,5.5-25.4,19.5-29.5c3.5-1,4.2-2.7,5.1-5.8c2.9-10.3,8.9-18,20.1-19.9
		C53.9,14.8,57.8,13.7,61.7,13.9z"/>
	<path class="st1" d="M92.5,16.7c2.8,7.6,7.1,13.2,15.7,15.1c6.3,1.4,3.2,4.9,0.4,7.6c-2-0.5-3.5-0.4-3.2,2.4
		c-5.6,1.8-15.5-2.9-17-8c-1.1-3.7-2.5-7.3-3.7-10.9c0.2-0.9,0.6-1.7,1.1-2.5c0.9-1.3,1.8-2.5,3.2-3.2C90,16.8,91.2,16.6,92.5,16.7z
		"/>
	<path class="st2" d="M92.5,16.7c-0.6,1.3-1.7,1.6-3,1.7c-1.4-2.8-1.1-6.1-2.1-9.3c0.1,4.3,0.9,8.3-0.8,12.2
		c-0.6,0.5-1.2,1.1-1.9,1.7c-1.5-1.9-3.4-3.6-4.4-5.7c-1.2-2.5-7.6-2.6-3.6-7.7c3.7-4.7,13.2-8.9,16.7-7.2c2.2,1.1,1.7,2.7,1.1,4.4
		C93.3,9.9,92.4,13.2,92.5,16.7z"/>
	<path class="st3" d="M31.2,113.7c0.6-2.8,2.2-4.7,4.8-4.8c2.7-0.1,4.7,1.7,4.7,4.5c0,2.6-1.9,4.8-4.6,4.7
		C33.6,118,31.6,116.5,31.2,113.7z"/>
	<path class="st4" d="M46.8,102.7c-3.8-0.2-5.2-2.3-4.9-4.9c0.4-2.6,2.6-4.1,5.3-3.9c2.7,0.2,3.8,2.2,3.7,4.5
		C50.8,101.2,49.1,102.9,46.8,102.7z"/>
	<path class="st5" d="M67.9,102.7c-3.1-0.3-4.5-1.6-4.6-4.2c-0.1-3,1.5-4.6,4.4-4.5c2.6,0.1,4,1.5,4.1,4.1
		C71.9,101.1,70.1,102.4,67.9,102.7z"/>
	<path class="st6" d="M56.8,108.8c2.5,0.5,4.5,2,4.7,4.7c0.2,3-2.1,4.3-4.6,4.5c-2.5,0.2-3.9-1.4-4-4.1
		C52.9,111.2,53.7,109.2,56.8,108.8z"/>
	<path class="st7" d="M78.4,118.1c-2.7-0.7-5-1.6-4.8-4.8c0.2-2.4,1.8-4.3,4.2-4.3c2.7,0,4.4,1.7,4.4,4.7
		C82.2,116.6,80.6,117.7,78.4,118.1z"/>
	<path class="st8" d="M53,90.6c0.5-1.1,1.1-2.1,1.6-3.2c2.1-1.5,4.2-3.1,7-2.6c1.7,2.9,5.7,0.3,7.4,3.1c-1.4,1.3-3.1,0.4-3.6,0.5
		c-2,0-0.5,1.6-0.9,0.7c-0.1-0.1,0.1-0.3,0.4-0.2c2.3,0.5,5.5-2.1,7,1.7C65.6,90.6,59.3,90.6,53,90.6z"/>
	<path class="st9" d="M71.8,90.6c-2.5-2.5-6-0.2-8.8-1.8c1.9-1.6,4-0.5,5.9-0.9c2.5,0,4.9,0,7.4,0c1.2-1.2,2.4-1.2,3.7-0.2
		c1.8,0.2,3.3,0.8,3.5,3C79.7,90.6,75.8,90.6,71.8,90.6z"/>
	<path class="st10" d="M111.7,25.8c-2.7,0.5-3.5-1.2-4.1-3.2c-0.8-2.8,1.6-3.7,3.1-4c2.1-0.4,4.6,0.8,4.3,3.5
		C115,23.7,114.5,26.3,111.7,25.8z"/>
	<path class="st11" d="M61.7,13.9c-3.9,2.3-7.7,2.2-11.6,0.1C53.9,12.6,57.8,12.1,61.7,13.9z"/>
	<path class="st12" d="M105.4,41.8c-0.6-1.6-3.3-1.3-3.1-3.7c2.4-0.8,4.6-1.1,6.3,1.4C107.9,40.7,107.1,41.8,105.4,41.8z"/>
	<path class="st8" d="M36.9,87.9c1.8,2.7,5.4,0.2,7.2,2.7c-3.4,0-6.8,0-10.1,0c0-1,0.1-2,0.1-3C35.1,86.9,36,87.1,36.9,87.9z"/>
	<path class="st13" d="M80.1,87.6c-1.2,0.1-2.5,0.1-3.7,0.2c-1.8-2.2-4.4-4.4-1.6-7.5c1.7-1.9,3.9-2.1,5.8-0.4
		C83.5,82.6,82.2,85.2,80.1,87.6z"/>
	<path class="st14" d="M61.6,84.8c-2,1.9-4,3.7-7,2.6c-2.3-2.7-2.3-5.4-0.1-8.2C59.9,77.1,62.5,78.7,61.6,84.8L61.6,84.8z"/>
	<path class="st15" d="M67.3,63.9c2.8,0.4,4.4,1.7,4.4,4.2c0,2.5-1.7,4.2-4,4.3c-2.7,0.1-4.5-1.8-4.4-4.6
		C63.4,65.2,65.3,64.1,67.3,63.9z"/>
	<path class="st16" d="M50.8,67.7c-0.2,2.6-1.4,4.4-3.9,4.6c-2.8,0.2-4.4-1.5-4.4-4.4c0-2.6,1.4-3.9,4-4
		C49.1,63.9,50.3,65.4,50.8,67.7z"/>
	<path class="st17" d="M36.9,87.9c-0.9-0.1-1.9-0.2-2.8-0.4c-2.2-2.4-3.3-4.9-0.5-7.6c1.9-1.8,4.2-1.4,5.6,0.7
		C41.2,83.8,39.6,86.1,36.9,87.9z"/>
	<path class="st8" d="M61.6,84.9c-0.2-4.7-2.5-6.7-7.1-5.7c0.1-4.3,8.4,0.5,6.5-4.4C60.3,77.1,65.5,80.7,61.6,84.9z"/>
	<path class="st18" d="M86.5,21.3c-0.3-5-2.5-10.1,0.8-15.3c2.9,3.8,3,8,2.1,12.3C88.5,19.3,87.5,20.3,86.5,21.3z"/>
	<path class="st19" d="M94.2,28.5c1.6,0.8,3.8,1.9,3.1,3.3c-1.1,2-2.3,0.1-3-1.1C93.9,30.2,94.2,29.4,94.2,28.5z"/>
	<path class="st20" d="M99.4,36.2c-0.8,0.5-1.3,1.1-1.9,1.1c-1,0.1-1.8-0.5-1.5-1.6c0.1-0.4,1.1-0.7,1.7-0.7
		C98.2,35,98.6,35.6,99.4,36.2z"/>
</g>
</svg>
