<?xml version="1.0" encoding="utf-8"?>
<!-- Generator: Adobe Illustrator 24.0.3, SVG Export Plug-In . SVG Version: 6.00 Build 0)  -->
<svg version="1.1" id="Шар_1" xmlns="http://www.w3.org/2000/svg" xmlns:xlink="http://www.w3.org/1999/xlink" x="0px" y="0px"
	 viewBox="0 0 120 120" style="enable-background:new 0 0 120 120;" xml:space="preserve">
<style type="text/css">
	.st0{fill:#788B8E;}
	.st1{fill:#95ACB3;}
	.st2{fill:#A3AFB2;}
	.st3{fill:#97ADB4;}
	.st4{fill:#96ACB3;}
	.st5{fill:#ECEFF0;}
	.st6{fill:#F2F4F5;}
</style>
<g>
	<path class="st0" d="M24.8,86.1c-12.8-3.3-21-13-21.7-25.8c-0.7-12.8,7.1-23.9,20-28c3.7-1.2,6.2-2,7.5-6.8
		C34.3,10.8,45,2,64.5,3.6c12.5,1,22.9,12.9,24.4,27.2c0.3,2.9-0.6,5.7,4.2,6.3c14.4,1.9,22.2,9.3,23.6,21.4
		c1.6,13.3-4.2,22.1-18.3,27.6C73.9,87,49.3,86.9,24.8,86.1z"/>
	<path class="st1" d="M38,90.5c4-0.2,7.2-0.3,7.1,4.7c0,4.3-2.2,5.6-6.1,5.7c-4.1,0.1-7.1-1.3-7.2-5.6C31.7,90.8,34.9,90,38,90.5z"
		/>
	<path class="st2" d="M24.8,86.1c24.5,0,49.1,0,73.6,0c-0.9,0.4-1.8,1.1-2.7,1.1c-22.7,0.1-45.4,0.1-68.1,0
		C26.6,87.2,25.7,86.5,24.8,86.1z"/>
	<path class="st1" d="M70.6,108.3c3.9-1.8,6-0.8,6,3.5c0,5.4-4.1,4.7-7.6,4.8c-3.5,0.1-6.1-1-5.8-5.1
		C63.7,105.9,67,106.5,70.6,108.3z"/>
	<path class="st3" d="M50.6,111.9c-0.1,3.6-2.3,4.6-5.5,4.7c-3.6,0.1-4.8-1.6-4.9-5c0-3.8,2-4.6,5.3-4.6
		C48.9,107,50.7,108.4,50.6,111.9z"/>
	<path class="st4" d="M60.1,90.5c3.8-0.4,4.9,1.7,4.8,5c-0.1,3.5-2,5.1-5.2,5s-5.1-2.1-4.9-5.4C55,91.9,56.6,90,60.1,90.5z"/>
	<path class="st4" d="M87.8,95c0.4,3.5-1.4,5.4-4.7,5.5c-3.4,0.1-4.9-1.9-4.8-5.3c0-3.1,1-4.7,4.4-4.7C85.9,90.4,88,91.2,87.8,95z"
		/>
	<path class="st5" d="M79.3,82.6c-1.1,0.6-7.5,3.9-9.5-1.6c-1.1-3,0-6.2,3.7-7c4.6-1,6.3,1.6,6.5,5.8C80.1,81.1,80,81.7,79.3,82.6z"
		/>
	<path class="st6" d="M46.2,81.3c0.4-9.3,1.8-8.7,10.3-5.9c2.1,1.8,1.4,3.9,0.5,5.9c-0.9,1.8-6.8,4.4-9.9,1.7
		c-0.3-0.2-0.4-0.5-0.5-0.9L46.2,81.3z"/>
</g>
</svg>
