<?xml version="1.0" encoding="utf-8"?>
<!-- Generator: Adobe Illustrator 24.0.3, SVG Export Plug-In . SVG Version: 6.00 Build 0)  -->
<svg version="1.1" id="Шар_1" xmlns="http://www.w3.org/2000/svg" xmlns:xlink="http://www.w3.org/1999/xlink" x="0px" y="0px"
	 viewBox="0 0 120 120" style="enable-background:new 0 0 120 120;" xml:space="preserve">
<style type="text/css">
	.st0{fill:#8FA8B0;}
	.st1{fill:#F7D047;}
	.st2{fill:#8CA7AC;}
	.st3{fill:#BFD0D6;}
	.st4{fill:#C0D1D6;}
	.st5{fill:#BDCFD4;}
	.st6{fill:#BECFD4;}
	.st7{fill:#F8CE35;}
	.st8{fill:#F2F5F6;}
	.st9{fill:#F4F7F8;}
	.st10{fill:#F3F7F8;}
	.st11{fill:#F4F7F7;}
	.st12{fill:#F9D04E;}
</style>
<g>
	<path class="st0" d="M29.1,91.3C16.2,91,6.7,82.5,5,69.9c-1.6-12,5.3-23.7,16.9-27.3c4.2-1.3,5.8-3.6,7.1-7.7
		c3.9-13.2,14.8-20.2,27.8-18.7c11.5,1.4,21.1,11.6,21.7,24.4c0.3,5.5,3.3,5.6,6.8,6.3c11.8,2.4,18.8,12.4,17.7,25.3
		c-1,11-9.7,18.8-21.5,19.2c-8.2-1.3-16.6,0-24.8-0.7c-3-1.7,0.2-5.6-2.5-7.9c-3.3,2.1,0.7,5.4-1.2,7.5c-5.1,1.5-10.4-0.4-15.4,1.1
		c-0.5,0-1.1,0-1.6,0C33.7,90.5,31.4,90.5,29.1,91.3z"/>
	<path class="st1" d="M107.3,48.4c-6.3-2.7-13.4-2.9-19.5-6.4c-1.4-0.8-3.9-0.6-3.9-2.6c-0.5-11-10.7-19.7-13-29.7
		c-0.2-3.3,1-4.7,3.6-2.7c1.6,1.5,2.9,6.7,6.2,6.1c3.5-0.7,2.1-3.8,2.3-6c0.2-2.2,0-5,2.8-5.1c3-0.1,2.7,2.7,3,4.9
		c0.3,2.2-1.1,5.4,2.1,6.2c3.2,0.9,3.6-2.4,4.9-4.3c1.1-1.7,2.1-3.8,4.4-2.7c2.8,1.3,1.6,3.8,0.5,5.6c-3.6,6.6-2.4,8.6,4.8,6.1
		c1.7-0.6,3.6-2.5,4.7-1c1.6,2.3-2,4.1-2.8,5.2c-4.4,6.4-4.3,6.7,3.5,7.6c1.9,0.2,4.2,0.1,4.4,2.6c0.2,3.2-2.4,2.9-4.5,3.2
		c-7.6,0.8-7.8,1.3-3.3,8.4C108.3,45.4,108.5,46.9,107.3,48.4z"/>
	<path class="st2" d="M37.6,91.3c4.8-3.4,10.8,1,15.6-2.7c0.9-0.9,1.8-1,2.8-0.3c3.9,3.2,8.5,1,12.7,1.6c4.3,0.7,8.8-1.3,12.9,1.3
		C66.9,91.3,52.3,91.3,37.6,91.3z"/>
	<path class="st3" d="M64.2,94.6c2.8,0,4.2,1.9,4.1,4.2c0,2.8-2,4.5-4.6,4.4c-2.3-0.1-4.2-1.9-4.1-4.2
		C59.6,96.2,61.7,94.8,64.2,94.6z"/>
	<path class="st4" d="M78.4,113.3c-0.4,2.7-1.9,4.5-4.5,4.7c-2.6,0.2-3.8-1.9-4.1-4.1c-0.3-3,1.7-4.2,4.3-4.5
		C76.8,109.1,77.6,111.1,78.4,113.3z"/>
	<path class="st5" d="M48.5,98.5c-0.4,2.7-1.9,4.5-4.5,4.6c-2.2,0.1-3.4-1.5-3.6-3.6c-0.2-2.8,0.9-4.7,3.8-4.9
		C47,94.4,47.7,96.5,48.5,98.5z"/>
	<path class="st6" d="M38.6,113.6c-0.6,2.6-2.1,4.4-4.7,4.3c-2.6-0.1-3.6-2-3.4-4.5c0.1-2.6,1.6-4,4-4
		C37.1,109.4,38,111.3,38.6,113.6z"/>
	<path class="st5" d="M58.5,113.6c-0.4,2.4-1.8,4.1-4.1,4.3c-2.6,0.3-3.9-1.4-4-4c-0.1-2.5,1-4.4,3.7-4.4
		C56.4,109.5,57.7,111.2,58.5,113.6z"/>
	<path class="st7" d="M107.3,48.4c0-1.5,0.1-3.1,0.1-4.6c1.7,0.3,3,0.9,2.8,3.1C109.9,48.9,108.7,48.9,107.3,48.4z"/>
	<path class="st2" d="M29.1,91.3c2.3-1.9,4.6-1.9,6.9,0C33.7,91.3,31.4,91.3,29.1,91.3z"/>
	<path class="st8" d="M64,73.7c-2.5-0.4-3.9-1.7-3.8-4.4c0.1-2.5,1.4-4.3,3.9-4.1c2.3,0.2,4.1,1.8,4,4.3
		C68.1,71.8,66.4,73.3,64,73.7z"/>
	<path class="st9" d="M34.2,88.4c-2.5-0.3-3.9-1.8-3.8-4.3c0.1-2.5,1.4-4.2,3.9-4.1c2.4,0.1,4,1.8,3.9,4.3
		C38.2,86.7,36.5,88.1,34.2,88.4z"/>
	<path class="st10" d="M56,88.4c-0.9,0.1-1.9,0.2-2.8,0.3c-2.8-1.8-4.1-4.3-1.9-7.3c1.3-1.8,3.2-2.1,5-0.5
		C59.2,83.4,58.1,86,56,88.4z"/>
	<path class="st11" d="M44.3,65.1c2.5,0.6,3.6,2.3,3.3,4.8c-0.2,2.2-1.5,3.7-3.6,3.7c-2.5-0.1-3.8-1.8-3.7-4.3
		C40.4,66.6,41.8,65.3,44.3,65.1z"/>
	<path class="st9" d="M73.8,88.4c-2.5-0.4-3.8-1.9-3.7-4.5c0.1-2.5,1.5-4.1,4.1-3.9c2.2,0.2,3.3,1.8,3.3,4
		C77.6,86.6,76.3,88,73.8,88.4z"/>
	<path class="st12" d="M99,26.1c-3.5,0.3-3.2-1.8-2.9-4.7C97.3,23.2,98.1,24.5,99,26.1z"/>
</g>
</svg>
