<?xml version="1.0" encoding="utf-8"?>
<!-- Generator: Adobe Illustrator 24.0.3, SVG Export Plug-In . SVG Version: 6.00 Build 0)  -->
<svg version="1.1" id="Шар_1" xmlns="http://www.w3.org/2000/svg" xmlns:xlink="http://www.w3.org/1999/xlink" x="0px" y="0px"
	 viewBox="0 0 120 120" style="enable-background:new 0 0 120 120;" xml:space="preserve">
<style type="text/css">
	.st0{fill:#788B8E;}
	.st1{fill:#81C0D0;}
	.st2{fill:#7FC0D0;}
	.st3{fill:#C1D1D6;}
	.st4{fill:#BECFD4;}
	.st5{fill:#BCCED3;}
	.st6{fill:#BDCFD5;}
	.st7{fill:#BDCED3;}
	.st8{fill:#7A8A8F;}
	.st9{fill:#768A90;}
	.st10{fill:#F7D253;}
	.st11{fill:#758689;}
	.st12{fill:#86C1D0;}
	.st13{fill:#EBEFEF;}
	.st14{fill:#EDF0F1;}
	.st15{fill:#EFF2F3;}
	.st16{fill:#EDF1F1;}
	.st17{fill:#F4F7F8;}
	.st18{fill:#86C0D1;}
	.st19{fill:#86BFCF;}
	.st20{fill:#85BECF;}
</style>
<g>
	<path class="st0" d="M61.7,13.4C74.7,15.9,82.5,24.6,84,38.9c0.4,3.4,0.7,5.2,4.8,5.6c14.8,1.7,22.9,11.9,21.5,26.1
		C109,83.4,98.7,91.5,84.4,91c-1.1-1.2-3.1-1.5-3.6-3.3c-0.1-0.7-0.1-1.5-0.1-2.2c0-1.5-0.2-3.3-2.1-3.3c-2.3,0-1.7,2-1.5,3.4
		c0.2,1.2,0.5,2.4-0.7,3.4c-2.1,1.1-4.3,0.7-6.4,0.6c-2.7-0.9-5.9-0.6-8.2-2.7c-0.4-0.6-0.6-1.3-0.7-2c0.5-3-1-6.1,0.1-8.9
		c0.8-1-0.6-0.1-0.5,0c0.4,1.8-1,2.4-2.5,2.9c-1,0.3-1.8,0.6-2.4,1.4c-1.5,2.5-0.7,5.1-0.6,7.7c-0.1,1.6-1.1,2.5-2.4,3
		c-3.1,0-6.1,0-9.2,0c-2.4-1.6-5.8,1-7.9-1.9c-0.4-2.1,1.7-4.1,0.1-6.7c-3.4,1.3-1.7,3.8-1.6,5.8c0,1.1-0.3,2.1-1.1,2.8
		C17.2,91.6,6.1,83.5,3.4,69.3C0.9,56,9.1,43.5,23.6,39.5c3.6-1,4.4-2.7,5.3-5.9c3-10.5,9.2-18.2,20.8-20.1
		C53.7,14.2,57.7,13.1,61.7,13.4z"/>
	<path class="st1" d="M93.6,16.2c2.9,7.7,7.4,13.4,16.3,15.3c6.5,1.4,3.3,4.9,0.5,7.7c-2-0.5-3.7-0.4-3.3,2.4
		c-5.8,1.8-16-3-17.6-8.1c-1.2-3.7-2.6-7.4-3.9-11c0.2-0.9,0.6-1.8,1.1-2.5c0.9-1.3,1.8-2.5,3.3-3.2C91.1,16.3,92.3,16.1,93.6,16.2z
		"/>
	<path class="st2" d="M93.6,16.2c-0.6,1.3-1.8,1.6-3.1,1.7c-1.5-2.9-1.2-6.1-2.2-9.4c0.1,4.3,1,8.4-0.8,12.4
		c-0.6,0.6-1.3,1.1-1.9,1.7c-1.6-1.9-3.5-3.7-4.6-5.8c-1.3-2.5-7.9-2.6-3.7-7.8C81,4.1,90.9-0.2,94.5,1.6c2.3,1.1,1.8,2.7,1.1,4.4
		C94.4,9.3,93.5,12.6,93.6,16.2z"/>
	<path class="st3" d="M30.2,114.3c0.6-2.8,2.3-4.7,5-4.8c2.8-0.1,4.9,1.8,4.9,4.5c0,2.6-1.9,4.9-4.7,4.8
		C32.7,118.7,30.6,117.2,30.2,114.3z"/>
	<path class="st4" d="M46.3,103.2c-3.9-0.2-5.4-2.3-5-4.9c0.4-2.7,2.6-4.2,5.5-4c2.8,0.2,4,2.3,3.8,4.6
		C50.5,101.7,48.7,103.4,46.3,103.2z"/>
	<path class="st5" d="M68.1,103.2c-3.2-0.3-4.7-1.6-4.7-4.3c-0.1-3,1.5-4.6,4.6-4.6c2.7,0.1,4.1,1.6,4.2,4.2
		C72.3,101.7,70.4,102.9,68.1,103.2z"/>
	<path class="st6" d="M56.7,109.4c2.6,0.5,4.6,2,4.8,4.7c0.2,3-2.2,4.4-4.8,4.6c-2.6,0.2-4.1-1.4-4.1-4.1
		C52.6,111.9,53.4,109.8,56.7,109.4z"/>
	<path class="st7" d="M79,118.8c-2.8-0.7-5.2-1.7-4.9-4.8c0.2-2.4,1.9-4.3,4.4-4.3c2.8,0,4.6,1.7,4.5,4.8
		C82.9,117.3,81.3,118.4,79,118.8z"/>
	<path class="st8" d="M52.7,91c0.5-1.1,1.1-2.2,1.6-3.3c2.2-1.5,4.3-3.1,7.3-2.6c1.8,3,5.9,0.3,7.7,3.1c-1.5,1.3-3.2,0.4-3.7,0.5
		c-2.1,0-0.5,1.6-1,0.7c-0.1-0.1,0.1-0.3,0.4-0.2c2.4,0.5,5.6-2.2,7.2,1.8C65.7,91,59.2,91,52.7,91z"/>
	<path class="st9" d="M72.2,90.9c-2.6-2.6-6.2-0.2-9.1-1.9c1.9-1.7,4.1-0.5,6.1-0.9c2.6,0,5.1,0,7.7,0c1.2-1.2,2.5-1.2,3.9-0.2
		c1.9,0.2,3.4,0.9,3.6,3C80.3,91,76.3,91,72.2,90.9z"/>
	<path class="st10" d="M113.5,25.3c-2.8,0.5-3.6-1.2-4.2-3.3c-0.8-2.8,1.7-3.8,3.3-4c2.2-0.4,4.7,0.8,4.5,3.6
		C116.8,23.3,116.3,25.9,113.5,25.3z"/>
	<path class="st11" d="M61.7,13.4c-4,2.3-8,2.2-12,0.1C53.7,12,57.7,11.5,61.7,13.4z"/>
	<path class="st12" d="M107,41.6c-0.6-1.6-3.4-1.3-3.3-3.8c2.5-0.8,4.8-1.2,6.6,1.4C109.5,40.4,108.7,41.6,107,41.6z"/>
	<path class="st8" d="M36.1,88.2c1.8,2.8,5.6,0.2,7.5,2.7c-3.5,0-7,0-10.5,0c0-1,0.1-2,0.1-3.1C34.2,87.3,35.2,87.4,36.1,88.2z"/>
	<path class="st13" d="M80.8,87.9c-1.3,0.1-2.6,0.1-3.9,0.2c-1.9-2.2-4.6-4.4-1.6-7.6c1.8-1.9,4-2.1,6-0.4
		C84.3,82.8,82.9,85.5,80.8,87.9z"/>
	<path class="st14" d="M61.6,85.1c-2,1.9-4.1,3.8-7.3,2.6c-2.4-2.7-2.3-5.5-0.1-8.3C59.9,77.3,62.6,78.9,61.6,85.1L61.6,85.1z"/>
	<path class="st15" d="M67.6,63.9c2.9,0.4,4.6,1.7,4.5,4.3c0,2.5-1.7,4.3-4.1,4.3c-2.8,0.1-4.6-1.9-4.6-4.7
		C63.5,65.3,65.4,64.1,67.6,63.9z"/>
	<path class="st16" d="M50.4,67.8c-0.3,2.6-1.5,4.4-4,4.6c-2.9,0.2-4.6-1.5-4.6-4.4c0-2.7,1.5-4,4.1-4C48.7,64,50,65.5,50.4,67.8z"
		/>
	<path class="st17" d="M36.1,88.2c-1-0.1-2-0.2-2.9-0.4c-2.3-2.4-3.5-5-0.5-7.6c2-1.8,4.4-1.5,5.8,0.7C40.6,84.1,39,86.4,36.1,88.2z
		"/>
	<path class="st8" d="M61.6,85.2c-0.2-4.8-2.6-6.8-7.3-5.8c0.1-4.4,8.7,0.5,6.7-4.5C60.3,77.3,65.7,81,61.6,85.2z"/>
	<path class="st18" d="M87.4,20.8c-0.3-5.1-2.6-10.2,0.8-15.5c3,3.9,3.1,8.1,2.2,12.5C89.4,18.8,88.4,19.8,87.4,20.8z"/>
	<path class="st19" d="M95.3,28.1c1.7,0.8,3.9,2,3.2,3.4c-1.1,2-2.4,0.1-3.1-1.1C95.1,29.8,95.3,29,95.3,28.1z"/>
	<path class="st20" d="M100.7,35.9c-0.9,0.5-1.4,1.1-1.9,1.1c-1,0.1-1.9-0.5-1.5-1.7c0.1-0.4,1.2-0.7,1.8-0.7
		C99.5,34.7,100,35.3,100.7,35.9z"/>
</g>
</svg>
