<?xml version="1.0" encoding="utf-8"?>
<!-- Generator: Adobe Illustrator 24.0.3, SVG Export Plug-In . SVG Version: 6.00 Build 0)  -->
<svg version="1.1" id="Шар_1" xmlns="http://www.w3.org/2000/svg" xmlns:xlink="http://www.w3.org/1999/xlink" x="0px" y="0px"
	 viewBox="0 0 120 120" style="enable-background:new 0 0 120 120;" xml:space="preserve">
<style type="text/css">
	.st0{fill:#B9CBD1;}
	.st1{fill:#007086;}
	.st2{fill:#00748B;}
</style>
<g>
	<path class="st0" d="M21.1,34.5c6.7-2.8,10.3-7.3,13-14.6c4.2-11,14.1-16.6,26.3-16.4c12.2,0.2,20.9,6,25.9,17.2
		c3.1,6.9,10.9,15.6,17.1,18.9c15.6,8.5,17.9,28.8,4.6,39.9c-2.1,1.8-4.4,4.3-7.2,1.8c-5.9-5.5-13.1-4.3-20-4.4
		c-11.3-0.1-22.7,0.1-34-0.1c-2.1,0-5.3,1.9-5.7-3.3c-1-11.6-9-13.5-14.2-10.9c-1.1,0.5-2.6,1.3-4.8,2.3c-1.2,0.6-1.4,0.9-1.6,1.1
		c-0.5,0.5-1,1-2,2.1c-1.4,3.2-0.6,1-1.4,3.7c-0.8,2.2-0.9,2.2-2.1,4.2c-1.5,2.6-2.6,1.3-3.2-0.8C7.7,68.9,4.7,64.8,5,58.9
		c0.3-6.7,1.7-15.4,7.3-18.9C15.8,37.9,16.8,37,21.1,34.5z"/>
	<path class="st1" d="M30.8,83.9c0.1,0,0.3,0.1,0.4,0.1c19.2-0.1,38.4-0.2,57.6-0.2c2.8,0,7.1-1.1,6.9,3.5c-0.2,3.7-4.1,2.8-6.7,2.8
		c-18.3,0.1-36.7,0-55,0c-3.7,0-7.4,0-9.7-3.7C25.8,83.7,28.1,83.2,30.8,83.9z"/>
	<path class="st2" d="M46.6,111.9c-5-5.7-3.7-10.4,3.5-13.7c1.6-0.7,3.3-1.1,5-1.1c10.1-0.1,19.4-0.3,29-0.3
		c12.8,0,11.5,0.8,11.3,3.3c-0.5,3.5-7.5,2.9-11.1,3c-8.8,0.1-17.7,0.1-26.6,0.1c-5.9,0-8.6,1.7-5.7,8
		C50.5,112.6,49.9,113.7,46.6,111.9z"/>
	<path class="st1" d="M31,84c-2.3,0.8-4.5,1.5-6.8,2.3c-5.4-6.5-3.4-12.6,4.1-17c1.3,1.2,0.6,3.1,0.6,4.8c0,0.4,0,0.8,0,1.2
		C26.4,78.9,28,81.6,31,84z"/>
	<path class="st2" d="M46.6,111.9c1.7-0.2,3.8-0.6,5.5-0.8c0.8,2,7.1,1.1,6.3,5c-0.2,0.9-5.3,0.9-6,0.8
		C50.2,116.4,48.2,114.3,46.6,111.9z"/>
	<path class="st1" d="M28.4,69.2c2.1-1.7,5.1-2.6,5.6,0.5c0.3,1.6-3.1,3.8-5,5.6l-0.4-0.8C28.3,72.8,29,71,28.4,69.2z"/>
</g>
</svg>
