<?xml version="1.0" encoding="utf-8"?>
<!-- Generator: Adobe Illustrator 24.0.3, SVG Export Plug-In . SVG Version: 6.00 Build 0)  -->
<svg version="1.1" id="Шар_1" xmlns="http://www.w3.org/2000/svg" xmlns:xlink="http://www.w3.org/1999/xlink" x="0px" y="0px"
	 viewBox="0 0 120 120" style="enable-background:new 0 0 120 120;" xml:space="preserve">
<style type="text/css">
	.st0{fill:#788B8E;}
	.st1{fill:#95ACB3;}
	.st2{fill:#A3AFB2;}
	.st3{fill:#97ADB4;}
	.st4{fill:#96ACB3;}
	.st5{fill:#ECEFF0;}
	.st6{fill:#F2F4F5;}
</style>
<g>
	<path class="st0" d="M24.9,86.1C12.1,82.8,4,73.1,3.3,60.3c-0.7-12.8,7.1-23.8,19.9-27.9c3.7-1.2,6.2-2,7.4-6.8
		C34.4,11,44.9,2.2,64.3,3.8c12.4,1,22.8,12.8,24.2,27.1c0.3,2.9-0.6,5.6,4.2,6.3c14.3,1.9,22.1,9.3,23.5,21.3
		c1.5,13.3-4.2,22-18.2,27.6C73.7,86.9,49.3,86.8,24.9,86.1z"/>
	<path class="st1" d="M38,90.4c4-0.2,7.1-0.3,7.1,4.6c0,4.3-2.2,5.6-6.1,5.7c-4.1,0.1-7.1-1.3-7.2-5.6C31.8,90.7,34.9,89.9,38,90.4z
		"/>
	<path class="st2" d="M24.9,86.1c24.4,0,48.8,0,73.2,0c-0.9,0.4-1.8,1.1-2.7,1.1c-22.6,0.1-45.2,0.1-67.7,0
		C26.7,87.2,25.8,86.4,24.9,86.1z"/>
	<path class="st1" d="M70.5,108.1c3.8-1.8,6-0.8,6,3.4c0,5.4-4,4.7-7.5,4.8c-3.5,0.1-6-1-5.7-5C63.6,105.8,66.9,106.3,70.5,108.1z"
		/>
	<path class="st3" d="M50.6,111.7c-0.1,3.6-2.3,4.6-5.5,4.6c-3.5,0.1-4.8-1.6-4.8-5c0-3.8,2-4.6,5.2-4.6
		C48.9,106.9,50.6,108.3,50.6,111.7z"/>
	<path class="st4" d="M60,90.4c3.8-0.3,4.8,1.7,4.8,5c-0.1,3.4-2,5.1-5.1,5s-5-2.1-4.9-5.4C55,91.8,56.6,89.9,60,90.4z"/>
	<path class="st4" d="M87.5,94.9c0.3,3.5-1.4,5.4-4.7,5.4c-3.3,0.1-4.8-1.9-4.8-5.3c0-3.1,1-4.7,4.3-4.7
		C85.6,90.3,87.8,91.2,87.5,94.9z"/>
	<path class="st5" d="M79.1,82.6c-1.1,0.6-7.5,3.9-9.4-1.6c-1-3,0-6.2,3.6-7c4.6-1,6.3,1.6,6.5,5.8C79.9,81,79.8,81.7,79.1,82.6z"/>
	<path class="st6" d="M46.2,81.2c0.4-9.3,1.8-8.7,10.2-5.9c2.1,1.8,1.4,3.8,0.5,5.9c-0.8,1.8-6.8,4.4-9.9,1.7
		c-0.3-0.2-0.4-0.5-0.5-0.9L46.2,81.2z"/>
</g>
</svg>
