<?xml version="1.0" encoding="utf-8"?>
<!-- Generator: Adobe Illustrator 24.0.3, SVG Export Plug-In . SVG Version: 6.00 Build 0)  -->
<svg version="1.1" id="Шар_1" xmlns="http://www.w3.org/2000/svg" xmlns:xlink="http://www.w3.org/1999/xlink" x="0px" y="0px"
	 viewBox="0 0 120 120" style="enable-background:new 0 0 120 120;" xml:space="preserve">
<style type="text/css">
	.st0{fill:#90A8B0;}
	.st1{fill:#F7D047;}
	.st2{fill:#D4AE1E;}
	.st3{fill:#5FC3D8;}
	.st4{fill:#63C5D8;}
</style>
<g>
	<path class="st0" d="M83.9,90.4C96,90,104.1,82,105.4,69.6c1-10.1-7-21.3-17.7-23c-5.5-0.9-7.1-2.8-7.9-8.1
		c-2-13.3-11.1-21.8-23.2-22.6C43.3,15,32.8,22.3,29.3,35.5c-1.1,3.9-2.7,5.3-6.5,6.5C7.1,46.7,0.6,63.7,8.5,78.2c1.9,3.5,4.4,8,8,8
		c4.1,0,3.2-5.8,4.7-8.9c3.5-7.2,3.3-17,13.3-19.7c6.3-1.3,8.5-1.3,12.5,0.1c11.4,5.9,2.7,13.4,1,20.3c5.2,0.6,11.5,1.9,11.4,9.1
		c0.5,2,3.3,2.9,5.7,3.2L83.9,90.4z"/>
	<path class="st1" d="M72,7c3.3-3,4.4-0.1,5.7,2.2c1.1,1.8,1.8,4.4,4.7,3.8c3-0.6,2.4-3.2,2.6-5.3c0.2-2.3-0.8-5.7,2.9-5.5
		c2.9,0.2,2,3.3,2.2,5.4c0.2,2-0.8,4.7,2.3,5.4c2.9,0.7,3.6-1.8,4.8-3.5c1.3-1.9,2.5-5,5.4-3.1c2.5,1.6,0.6,3.9-0.3,5.9
		c-0.8,1.8-3.4,3.3-1.2,5.8c2.1,2.3,4,0.3,5.8-0.5c2.1-1,4.7-3.1,6.3,0c1.8,3.3-1.8,4.1-3.7,5.2c-2.9,1.7-4.8,3.4-2.5,6.9
		c2,1.3,4.2,0.5,6.3,0.7c1.5,0.1,3,0.3,2.9,2.3c-0.1,2-1.7,1.9-3.2,2.1c-2.6,0.4-6-1.5-7.4,2.6c0,3.9,3.6,4.2,5.6,6
		c1.1,0.9,3,1.6,1.9,3.3c-0.7,1-3.1,2.3-3.5,1.9c-4-3.3-9-1.8-13.4-3.5c-7.1-2.9-12.2-6.2-14.1-14.9c-1.5-7.2-8.5-12.3-10.3-19.8
		C72,9,71.8,8,72,7z"/>
	<path class="st2" d="M43.9,69.4c0,0,2.3-5.7-0.4-5.6c-2.4-0.2-8.3-0.3-10.7,1.2c-4,6.7-5.4,13.2-8.1,19.4c-2.6,5.9-2.4,8.9,5.4,8.7
		c5.3-0.1,6.8,1.2,3.6,6.7c-2.1,3.7-6.4,11-4.5,14L53,85.7c0-1.4-8.5-0.3-10.1-0.5c-0.9-0.1-2.6,0.4-3.6-0.5c-0.4-0.4-0.5-1-0.3-1.6
		L43.9,69.4z"/>
	<path class="st3" d="M49.6,113.4c0.7-2,3.1-11.4,3.6-13.6c0.3-1.3,3.3-4.2,5.1-3.8c1.8,0.4,2.8,4,2.1,5.9c-1.3,3.5-3.5,9.1-5,12.6
		C53.2,118.1,48.5,117,49.6,113.4z"/>
	<path class="st4" d="M78.6,101c-0.2,0.9-2.3,10.3-2.6,11.2c-1.1,2.8-2.8,6.1-5.9,5.6c-3-0.5-2.2-4.9-1-8c1-2.7,3.3-9.3,4.3-12
		C74.6,94.1,80.2,96.4,78.6,101z"/>
</g>
</svg>
