<?xml version="1.0" encoding="utf-8"?>
<!-- Generator: Adobe Illustrator 24.0.3, SVG Export Plug-In . SVG Version: 6.00 Build 0)  -->
<svg version="1.1" id="Шар_1" xmlns="http://www.w3.org/2000/svg" xmlns:xlink="http://www.w3.org/1999/xlink" x="0px" y="0px"
	 viewBox="0 0 120 120" style="enable-background:new 0 0 120 120;" xml:space="preserve">
<style type="text/css">
	.st0{fill:#8FA8B0;}
	.st1{fill:#81C0D0;}
	.st2{fill:#68C7D9;}
	.st3{fill:#63C6D8;}
	.st4{fill:#F6D353;}
	.st5{fill:#D4AE1E;}
</style>
<g>
	<path class="st0" d="M59.7,90.2C63,80.2,62.2,79.2,49,75.4c0.7-1.3,1.5-2.5,2.2-3.7c6.4-11,3.2-15.9-10.3-16
		c-12.1,0-14.4,1.4-18.4,12.1c-1.8,4.8-3.4,9.6-5.1,14.4c-1.4,4-3.1,4-6.3,1.3c-14.7-12.4-9.7-36.3,9.3-42.2c5.1-1.6,7.6-3.6,9-8.8
		c3-11.2,15-18.9,26.9-18.5c12.8,0.4,24.8,9.1,26.6,20.8c1.1,6.9,2.5,10.2,10.9,11.3c11.4,1.4,18.2,12.9,16.8,24.8
		c-1.2,10.3-10.7,18.8-22.2,19.3C79.1,90.5,69.7,90.2,59.7,90.2z"/>
	<path class="st1" d="M78.9,13.4c0,0.4,0.1,1.3,0.2,1.7c1.3,5.5,7.3,10.2,7.3,10.2c1.8,1.1,1.6,0.8,2.2,1.3c3.7,3.3,2.1,7,4.6,11.6
		c2.2,4.1,6,5.2,9.7,5.9c4.4,0.9,10.4-0.2,11.8-4.7c1.7-5.5-3.4-4.4-6-5c-0.1,0-2.5-0.7-4.8-2c-4.9-2.9-7.2-7.7-8.5-10.3
		c-0.1-0.1-0.1-0.3-0.2-0.3c-2.1-4.6-1.7-7.6-1-9.5c0.8-2.1,2.7-4.3,1.8-6.5c-0.4-0.8-0.9-1.2-1.1-1.4c-2.6-2-7.4,0-10,1
		c-3.8,1.3-6.3,3.5-6.3,4.8L78.9,13.4z"/>
	<path class="st2" d="M62.3,99.3c-1.6,4.8-2.9,10-5.3,15c-0.9,1.9-2,2.6-4,2.1c-2.3-0.6-3.3-2.1-2.6-4.4c1.5-4.8,2.7-9.7,4.6-14.4
		c0.7-1.8,3.3-3.7,5.4-3C61.7,95.1,62.3,96.9,62.3,99.3z"/>
	<path class="st3" d="M75.5,98.6c0.5-1.7,0.7-3.4,1.2-4c0.5-0.6,3.1-0.6,3.6-0.5c1.3,0.3,2.7,1.8,2.5,3c-0.6,4-2.5,10.5-3.7,14.4
		c-0.6,1.7-3.9,4.8-5.2,4.4c-0.9-0.2-2.6-0.8-3-1.2c-0.7-0.9,0.4-4.1,1.1-5.5C73.3,106.9,74.3,103.3,75.5,98.6z"/>
	<path class="st4" d="M109.4,22.9c-0.1-2.2,2-3.1,3.8-3.3c1.9-0.1,4.3,0.8,4.2,3.1c-0.1,1.7-0.4,3.8-3.3,4
		C111.2,27.1,110.1,25.5,109.4,22.9z"/>
	<path class="st5" d="M40.7,73.2c0,0,2.4-5.6-0.4-5.5c-2.5-0.2-8.6-0.3-11.1,1.1c-4.2,6.5-5.6,12.9-8.4,18.8
		c-2.7,5.8-2.5,8.6,5.6,8.4c5.6-0.1,7,1.1,3.7,6.5c-2.2,3.6-6.7,10.7-4.7,13.7l24.9-27.2c0-1.3-8.8-0.3-10.5-0.5
		c-1-0.1-2.7,0.4-3.7-0.5c-0.4-0.4-0.5-1-0.4-1.5L40.7,73.2z"/>
</g>
</svg>
