<?xml version="1.0" encoding="utf-8"?>
<!-- Generator: Adobe Illustrator 24.0.3, SVG Export Plug-In . SVG Version: 6.00 Build 0)  -->
<svg version="1.1" id="Шар_1" xmlns="http://www.w3.org/2000/svg" xmlns:xlink="http://www.w3.org/1999/xlink" x="0px" y="0px"
	 viewBox="0 0 120 120" style="enable-background:new 0 0 120 120;" xml:space="preserve">
<style type="text/css">
	.st0{fill:#788B8E;}
	.st1{fill:#AA890E;}
	.st2{fill:#D5AF23;}
</style>
<g>
	<path class="st0" d="M96.6,82.6c-0.3-2.2,1.8-3,2.8-4.5c3.3-5,2.7-9.4-3.3-11.4c-4.8-1.5-4.3-3-2.6-6.6c3.6-7.5,0.5-12-8.3-12.6
		c-13.2-0.9-14.9,0.4-22.5,17.1c-11.5-11.6-29.6-8.1-35.3,6.7c-1.4,3.5-0.9,9.3-5.2,9.9c-5.3,0.7-9.5-3.5-12.9-7.3
		C-4.3,58.9,2.6,35.9,22.7,30.5c4.8-1.3,6.5-3.5,7.8-7.6c4.4-13.8,16.7-22,31-21c14.5,1,25.5,10.4,27.7,24.7
		c0.9,5.7,2.5,7.9,9.1,8.7c12.5,1.5,20.8,12.6,20.3,24.9C118,72,109.3,80.9,96.6,82.6z"/>
	<path class="st1" d="M58.3,95c0.9-1.5,3.8-6.2,2.2-6.4l-14.6-1.2c-1-0.6-1-1.2-0.5-2.3l8.9-15.4c1.2-2.6,1.5-4.1-2.3-4.7
		c-11.4-2-15.4,0-19.2,10.3c-1.6,4.4-3.3,8.9-4.9,13.3c-3.1,8.6-3,8.9,6.5,8.8c4.5,0,6.6,3.1,4.7,6.9c-2.3,4.9-6.1,9.4-6.2,15.5
		c4-1.2,5.5-4.2,7.9-6.2l17.4-18.7C58.3,95.1,58.3,95,58.3,95z"/>
	<path class="st2" d="M77,85c1.1-3.5,2.2-3.9-3.9-4.9c-2.2-0.3-6.5-0.6-6-2l4.7-14.2l2.6-8c0.2-0.7,0.7-1.2,1.4-1.5
		c2-0.9,8.3-0.6,9.4-0.5c3.5,0.3,2.7,1.2,1.6,4.1L80,70.8c-0.4,0.8-0.6,1.5,1.3,1.5c3.6,0,8.3,0.1,12.1,0.4c1.7,0.2,1,0.4,0.3,1.2
		L81.7,88c-3.9,3.9-8.3,10.3-9.6,11.4c-0.4,0.3,0-1.7,0.2-2.2L77,85z"/>
</g>
</svg>
