<?xml version="1.0" encoding="utf-8"?>
<!-- Generator: Adobe Illustrator 24.0.3, SVG Export Plug-In . SVG Version: 6.00 Build 0)  -->
<svg version="1.1" id="Шар_1" xmlns="http://www.w3.org/2000/svg" xmlns:xlink="http://www.w3.org/1999/xlink" x="0px" y="0px"
	 viewBox="0 0 120 120" style="enable-background:new 0 0 120 120;" xml:space="preserve">
<style type="text/css">
	.st0{fill:#80C0D0;}
	.st1{fill:#D4AE1E;}
	.st2{fill:#788B8F;}
	.st3{fill:#F8D355;}
</style>
<g>
	<path class="st0" d="M93.6,7.9c-1.3,14.1,1.9,19.4,15.7,24.4c3.6,1.3,1.9,2.8,1.1,4c-2,3.1-5,6.5-8.8,4.8c-4.4-2-11.3-0.3-12.8-7.4
		c-1.5-7.6-5.2-14.1-11.3-19c-2.8-2.2-2.8-3.8-0.3-6.3c3.6-3.7,8-5.5,12.8-6.3c3.1-0.5,5.6,0.1,4.5,4.2C94.4,6.9,93.6,7.4,93.6,7.9z
		"/>
	<path class="st1" d="M83.2,74.6c0,0,2.3-5.6-0.4-5.5c-2.4-0.2-8.3-0.3-10.7,1.1c-4.1,6.5-5.4,13-8.1,19c-2.6,5.8-2.5,8.7,5.4,8.5
		c5.4-0.1,6.8,1.1,3.6,6.5c-2.2,3.6-6.5,10.8-4.6,13.8l24-27.4c0-1.3-8.5-0.3-10.2-0.5c-0.9-0.1-2.6,0.4-3.6-0.5
		c-0.4-0.4-0.5-1-0.3-1.5L83.2,74.6z"/>
	<path class="st1" d="M44.2,74.6c0,0,2.3-5.6-0.4-5.5c-2.4-0.2-8.3-0.3-10.7,1.1c-4.1,6.5-5.4,13-8.1,19c-2.6,5.8-2.5,8.7,5.4,8.5
		c5.4-0.1,6.8,1.1,3.6,6.5c-2.2,3.6-6.5,10.8-4.6,13.8l24-27.4c0-1.3-8.5-0.3-10.2-0.5c-0.9-0.1-2.6,0.4-3.6-0.5
		c-0.4-0.4-0.5-1-0.3-1.5L44.2,74.6z"/>
	<path class="st2" d="M96,74.9c0.3,2.6,0.7,4.6,1,6c0.1,0.5,0.2,1.1,0.6,1.9c0.3,0.6,0.9,1.1,2.7,2.7c1,0.9,1.8,0.5,2.5-0.6l5.5-9.6
		c0-0.1,0.1-0.1,0.1-0.2c5.9-16.5-5.3-31.6-22.8-30.5l-0.8-0.5c-2.3-2.1-1.4-4.9-1.7-7.5c-1.1-12-9.8-21.1-22.1-23
		c-3.5-0.6-6.8-0.7-10.3,0.1C39.1,15.9,30.7,27.8,30,35c-1.4,3.3-3.3,4.1-6.1,4.8C6.1,42.7-2.4,66.6,12.2,82c2.8,2.9,4.8,4,6.3-1.1
		c1.3-4.6,3-9.2,4.6-13.7c4.6-13.3,18.8-17.1,30.2-8.3c1.3,0.7-0.2,8-1.6,10.5c-4.9,8.6,1.8,8.1,6.1,6.1c1.2-3.2,2.4-6.4,3.5-9.6
		c1.3-3.6,1.3-4.8,4.3-7c9.7-7.1,23-2.9,24.2-1.9C94.8,60.9,95.5,68.2,96,74.9z"/>
	<path class="st3" d="M115.2,22.8c-0.1,1.6-1.2,2.6-3.7,2.6c-2.6,0-3.5-1.4-3.6-3.5c-0.1-2.6,1.7-4.1,4.1-3.8
		C113.9,18.4,115.5,19.7,115.2,22.8z"/>
</g>
</svg>
