<?xml version="1.0" encoding="utf-8"?>
<!-- Generator: Adobe Illustrator 24.0.3, SVG Export Plug-In . SVG Version: 6.00 Build 0)  -->
<svg version="1.1" id="Шар_1" xmlns="http://www.w3.org/2000/svg" xmlns:xlink="http://www.w3.org/1999/xlink" x="0px" y="0px"
	 viewBox="0 0 120 120" style="enable-background:new 0 0 120 120;" xml:space="preserve">
<style type="text/css">
	.st0{fill:#788B8E;}
	.st1{fill:#5FC5D7;}
	.st2{fill:#60C5D8;}
	.st3{fill:#D0D5D8;}
	.st4{fill:#708485;}
</style>
<g>
	<path class="st0" d="M97.5,37.1c11.5,2.4,19.2,11.4,19.9,23c0.7,12.6-6.3,22-19.9,26.6c-1.3,0.9-2.7,0.6-4,0.2
		c-21.5-0.5-42.9-0.5-64.4,0c-1.4,0.4-2.7,0.7-4-0.2C10.8,82.1,2.2,72.2,2.6,59C3,45.5,9.5,34.4,25.4,31c3.7-0.8,3.9-3.1,4.6-5.9
		c4.2-16.3,18.7-25.7,34-22.3l1.1,0.1c12.5,2.4,22.3,12,23,24.3c0.4,6.2,2.1,9.3,8.1,9.7L97.5,37.1z"/>
	<path class="st1" d="M64.2,98.8c-2.4,4.8-4.7,12-9.4,17.8c-1.2,1.5-3.1,1.8-4.9,0.9c-2-1-2.3-3-1.6-4.6c2.6-6.3,6.4-12,10.7-17.4
		c1.3-1.6,3.2-1.4,5-0.9C64.9,94.9,65.4,95.8,64.2,98.8z"/>
	<path class="st2" d="M25.8,117.9c-3.7-1.4-3-4.6-1.9-6.9c2.6-5.2,5.8-10,8.8-15c1.5-2.6,4-2.1,6.1-1.5c3.6,1.1,0.9,3.4,0.4,4.9
		c-1.9,5.8-5.1,11-8.9,15.7C29.2,116.4,27.9,117.8,25.8,117.9z"/>
	<path class="st3" d="M25.1,86.7c1.1-0.1,2.1-0.2,3.2-0.3c22-0.8,44-0.9,65.9,0c1.1,0.1,2.1,0.2,3.2,0.3c-1.3,1.6-3.1,1.5-4.9,1.5
		c-20.9,0-41.7,0-62.6,0C28.3,88.2,26.4,88.3,25.1,86.7z"/>
	<path class="st4" d="M94.3,86.4c-22,0-44,0-65.9,0c1.9-1.9,4.3-1.3,6.5-1.3c17.6,0,35.3,0,52.9,0C90,85.1,92.4,84.5,94.3,86.4z"/>
	<path class="st1" d="M89.3,98.8c-2.4,4.8-4.7,12-9.4,17.8c-1.2,1.5-3.1,1.8-4.9,0.9c-2-1-2.3-3-1.6-4.6c2.6-6.3,6.4-12,10.7-17.4
		c1.3-1.6,3.2-1.4,5-0.9C90.1,94.9,90.5,95.8,89.3,98.8z"/>
</g>
</svg>
