<!DOCTYPE svg PUBLIC "-//W3C//DTD SVG 20010904//EN" "http://www.w3.org/TR/2001/REC-SVG-20010904/DTD/svg10.dtd">
<svg version="1.0" xmlns="http://www.w3.org/2000/svg" width="49px" height="50px" viewBox="0 0 490 500" preserveAspectRatio="xMidYMid meet">
<g id="layer101" fill="#0fd4cf" stroke="none">
 <path d="M142 483 c2 -9 12 -20 23 -23 12 -3 20 -14 21 -27 1 -22 -3 -23 -76 -23 -111 0 -110 3 -110 -207 0 -152 2 -172 18 -186 16 -15 47 -17 229 -17 191 0 211 2 226 18 14 16 17 44 17 189 0 204 0 203 -103 203 -64 0 -67 1 -67 24 0 17 7 26 25 30 14 4 25 13 25 21 0 12 -20 15 -116 15 -103 0 -115 -2 -112 -17z m138 -48 c0 -20 -5 -25 -25 -25 -20 0 -25 5 -25 25 0 20 5 25 25 25 20 0 25 -5 25 -25z m168 -92 l3 -23 -205 0 c-193 0 -206 1 -206 18 0 10 3 22 7 26 4 3 95 5 202 4 195 -3 196 -3 199 -25z m2 -183 l0 -120 -205 0 -205 0 0 120 0 120 205 0 205 0 0 -120z"/>
 </g>
<g id="layer102" fill="#3caecc" stroke="none">
 <path d="M232 483 c2 -10 13 -19 26 -21 16 -3 22 -10 22 -29 0 -22 -4 -25 -28 -21 -25 4 -28 1 -24 -19 4 -21 9 -22 111 -25 101 -3 106 -4 109 -25 3 -23 2 -23 -107 -23 -104 0 -111 -1 -111 -20 0 -19 7 -20 110 -20 l110 0 0 -120 0 -120 -110 0 c-103 0 -110 -1 -110 -20 0 -19 7 -20 113 -20 154 0 147 -10 147 207 0 204 0 203 -103 203 -64 0 -67 1 -67 24 0 17 7 26 25 30 14 4 25 13 25 21 0 12 -15 15 -71 15 -62 0 -70 -2 -67 -17z"/>
 </g>

</svg>