<!DOCTYPE svg PUBLIC "-//W3C//DTD SVG 20010904//EN" "http://www.w3.org/TR/2001/REC-SVG-20010904/DTD/svg10.dtd">
<svg version="1.0" xmlns="http://www.w3.org/2000/svg" width="66px" height="75px" viewBox="0 0 660 750" preserveAspectRatio="xMidYMid meet">
<g id="layer101" fill="#16a8ad" stroke="none">
 <path d="M234 660 l-79 -90 -77 0 c-47 0 -78 -4 -78 -10 0 -12 132 -251 182 -328 18 -28 55 -92 83 -142 29 -53 56 -90 65 -90 9 0 36 37 65 90 28 50 65 114 83 142 50 77 182 316 182 328 0 6 -31 10 -77 10 l-78 0 -79 90 c-44 50 -87 90 -96 90 -9 0 -52 -40 -96 -90z m75 -247 c0 -159 -4 -277 -9 -263 -4 14 -33 111 -64 217 l-56 192 23 23 c12 13 40 44 61 71 21 26 40 47 42 47 2 0 4 -129 3 -287z m132 188 l38 -43 -56 -192 c-30 -105 -59 -202 -63 -216 -5 -14 -9 105 -9 265 l0 290 25 -30 c15 -16 44 -50 65 -74z m-284 -88 c7 -16 23 -64 36 -108 14 -44 37 -120 51 -169 15 -48 25 -91 22 -94 -3 -3 -6 0 -6 8 0 12 -41 85 -105 185 -17 28 -50 85 -73 128 l-41 77 52 0 c47 0 53 -3 64 -27z m421 -50 c-23 -43 -56 -100 -73 -128 -64 -100 -105 -173 -105 -185 0 -8 -3 -11 -6 -8 -3 3 7 46 22 94 100 334 86 304 151 304 l52 0 -41 -77z"/>
 </g>

</svg>